<svg width="61" height="71" viewBox="0 0 61 71" fill="none" xmlns="http://www.w3.org/2000/svg">
<path d="M59.3632 59.2398C59.9355 59.2398 60.3995 58.7763 60.3995 58.2047V10.1572C60.3995 9.58557 59.9355 9.1221 59.3632 9.1221H49.3463V1.3251C49.3463 0.762184 48.8733 0.290039 48.31 0.290039H1.88662C1.31436 0.290039 0.850342 0.753507 0.850342 1.3251V63.1498C0.850342 63.7214 1.31436 64.1849 1.88662 64.1849H11.9036V69.7739C11.9036 70.3455 12.3676 70.809 12.9399 70.809H59.3634C59.9356 70.809 60.3997 70.3455 60.3997 69.7739V63.1268C60.3997 62.5552 59.9356 62.0918 59.3634 62.0918C58.7911 62.0918 58.3271 62.5552 58.3271 63.1268V68.739H13.976V11.1922H58.327V58.2048C58.327 58.7763 58.791 59.2398 59.3632 59.2398ZM12.6885 9.15309C12.234 9.26645 11.9036 9.68956 11.9036 10.1572V62.1148H2.92291V2.36001H39.8929L12.6885 9.15309ZM47.2738 9.1221H21.3573L47.2738 2.65063V9.1221Z" fill="#7A7E86"/>
<path d="M51.6259 16.8502H20.677C20.1048 16.8502 19.6408 17.3137 19.6408 17.8853V32.2374C19.6408 32.809 20.1048 33.2724 20.677 33.2724H51.6259C52.1982 33.2724 52.6622 32.809 52.6622 32.2374V17.8853C52.6622 17.3136 52.1983 16.8502 51.6259 16.8502ZM50.5898 31.2023H21.7133V18.9202H50.5898V31.2023Z" fill="#7A7E86"/>
<path d="M39.4675 36.7225H20.677C20.1048 36.7225 19.6408 37.186 19.6408 37.7576V62.0458C19.6408 62.6174 20.1048 63.0808 20.677 63.0808H39.4675C40.0397 63.0808 40.5037 62.6174 40.5037 62.0458V37.7574C40.5037 37.1858 40.0397 36.7225 39.4675 36.7225ZM38.4313 61.0107H21.7133V38.7925H38.4313V61.0107Z" fill="#7A7E86"/>
<path d="M51.6259 40.0345H43.8887C43.3164 40.0345 42.8524 40.498 42.8524 41.0696C42.8524 41.6412 43.3164 42.1047 43.8887 42.1047H51.6259C52.1982 42.1047 52.6622 41.6412 52.6622 41.0696C52.6622 40.4979 52.1983 40.0345 51.6259 40.0345Z" fill="#7A7E86"/>
<path d="M51.6259 44.4505H43.8887C43.3164 44.4505 42.8524 44.914 42.8524 45.4856C42.8524 46.0571 43.3164 46.5206 43.8887 46.5206H51.6259C52.1982 46.5206 52.6622 46.0571 52.6622 45.4856C52.6622 44.914 52.1983 44.4505 51.6259 44.4505Z" fill="#7A7E86"/>
<path d="M51.6259 48.8666H43.8887C43.3164 48.8666 42.8524 49.3301 42.8524 49.9017C42.8524 50.4733 43.3164 50.9367 43.8887 50.9367H51.6259C52.1982 50.9367 52.6622 50.4733 52.6622 49.9017C52.6622 49.3299 52.1983 48.8666 51.6259 48.8666Z" fill="#7A7E86"/>
<path d="M51.6259 53.2826H43.8887C43.3164 53.2826 42.8524 53.746 42.8524 54.3176C42.8524 54.8892 43.3164 55.3527 43.8887 55.3527H51.6259C52.1982 55.3527 52.6622 54.8892 52.6622 54.3176C52.6622 53.746 52.1983 53.2826 51.6259 53.2826Z" fill="#7A7E86"/>
<path d="M51.6259 57.6987H43.8887C43.3164 57.6987 42.8524 58.1621 42.8524 58.7337C42.8524 59.3053 43.3164 59.7688 43.8887 59.7688H51.6259C52.1982 59.7688 52.6622 59.3053 52.6622 58.7337C52.6622 58.1621 52.1983 57.6987 51.6259 57.6987Z" fill="#7A7E86"/>
</svg>
