<svg width="64" height="60" viewBox="0 0 64 60" fill="none" xmlns="http://www.w3.org/2000/svg">
<path d="M2.84612 52.5H36.7059C38.2626 52.5 39.5294 51.2381 39.5294 49.6875V14.0625C39.5294 14.0194 39.5106 13.9819 39.5049 13.9406C39.4997 13.9013 39.4915 13.8625 39.4805 13.8244C39.4436 13.6646 39.3643 13.5176 39.2508 13.3988L26.0762 0.275625C25.927 0.135148 25.7362 0.046378 25.5322 0.0225C25.4927 0.01875 25.4551 0 25.4118 0H2.83482C1.27247 0 0 1.26187 0 2.8125V49.6875C0 51.2381 1.27624 52.5 2.84612 52.5ZM26.3529 3.20062L36.3162 13.125H27.2941C27.0445 13.125 26.8051 13.0262 26.6286 12.8504C26.4521 12.6746 26.3529 12.4361 26.3529 12.1875V3.20062ZM1.88235 2.8125C1.88235 2.295 2.30965 1.875 2.83482 1.875H24.4706V12.1875C24.4706 13.7381 25.7374 15 27.2941 15H37.6471V49.6875C37.6471 49.9361 37.5479 50.1746 37.3714 50.3504C37.1949 50.5262 36.9555 50.625 36.7059 50.625H2.84612C2.72104 50.6265 2.59688 50.6034 2.48075 50.5571C2.36462 50.5108 2.25879 50.4421 2.16929 50.3551C2.0798 50.268 2.00839 50.1643 1.95916 50.0497C1.90993 49.9352 1.88383 49.8121 1.88235 49.6875V2.8125Z" fill="#7A7E86"/>
<path d="M8.47059 22.5H31.0588C31.3084 22.5 31.5478 22.4012 31.7243 22.2254C31.9008 22.0496 32 21.8111 32 21.5625C32 21.3139 31.9008 21.0754 31.7243 20.8996C31.5478 20.7238 31.3084 20.625 31.0588 20.625H8.47059C8.22097 20.625 7.98158 20.7238 7.80508 20.8996C7.62857 21.0754 7.52941 21.3139 7.52941 21.5625C7.52941 21.8111 7.62857 22.0496 7.80508 22.2254C7.98158 22.4012 8.22097 22.5 8.47059 22.5Z" fill="#7A7E86"/>
<path d="M8.47059 30H31.0588C31.3084 30 31.5478 29.9012 31.7243 29.7254C31.9008 29.5496 32 29.3111 32 29.0625C32 28.8139 31.9008 28.5754 31.7243 28.3996C31.5478 28.2238 31.3084 28.125 31.0588 28.125H8.47059C8.22097 28.125 7.98158 28.2238 7.80508 28.3996C7.62857 28.5754 7.52941 28.8139 7.52941 29.0625C7.52941 29.3111 7.62857 29.5496 7.80508 29.7254C7.98158 29.9012 8.22097 30 8.47059 30Z" fill="#7A7E86"/>
<path d="M8.47059 15H17.8824C18.132 15 18.3714 14.9012 18.5479 14.7254C18.7244 14.5496 18.8235 14.3111 18.8235 14.0625C18.8235 13.8139 18.7244 13.5754 18.5479 13.3996C18.3714 13.2238 18.132 13.125 17.8824 13.125H8.47059C8.22097 13.125 7.98158 13.2238 7.80508 13.3996C7.62857 13.5754 7.52941 13.8139 7.52941 14.0625C7.52941 14.3111 7.62857 14.5496 7.80508 14.7254C7.98158 14.9012 8.22097 15 8.47059 15Z" fill="#7A7E86"/>
<path d="M8.47059 37.5H31.0588C31.3084 37.5 31.5478 37.4012 31.7243 37.2254C31.9008 37.0496 32 36.8111 32 36.5625C32 36.3139 31.9008 36.0754 31.7243 35.8996C31.5478 35.7238 31.3084 35.625 31.0588 35.625H8.47059C8.22097 35.625 7.98158 35.7238 7.80508 35.8996C7.62857 36.0754 7.52941 36.3139 7.52941 36.5625C7.52941 36.8111 7.62857 37.0496 7.80508 37.2254C7.98158 37.4012 8.22097 37.5 8.47059 37.5Z" fill="#7A7E86"/>
<path d="M8.47059 45H31.0588C31.3084 45 31.5478 44.9012 31.7243 44.7254C31.9008 44.5496 32 44.3111 32 44.0625C32 43.8139 31.9008 43.5754 31.7243 43.3996C31.5478 43.2238 31.3084 43.125 31.0588 43.125H8.47059C8.22097 43.125 7.98158 43.2238 7.80508 43.3996C7.62857 43.5754 7.52941 43.8139 7.52941 44.0625C7.52941 44.3111 7.62857 44.5496 7.80508 44.7254C7.98158 44.9012 8.22097 45 8.47059 45Z" fill="#7A7E86"/>
<path d="M40.4706 9.375H48.9412V19.6875C48.9412 21.2381 50.208 22.5 51.7647 22.5H62.1176V57.1875C62.1176 57.4361 62.0185 57.6746 61.842 57.8504C61.6655 58.0262 61.4261 58.125 61.1765 58.125H27.3167C27.1916 58.1265 27.0675 58.1034 26.9513 58.0571C26.8352 58.0108 26.7294 57.9421 26.6399 57.8551C26.5504 57.768 26.479 57.6643 26.4297 57.5497C26.3805 57.4352 26.3544 57.3121 26.3529 57.1875V55.3125C26.3529 55.0639 26.2538 54.8254 26.0773 54.6496C25.9008 54.4738 25.6614 54.375 25.4118 54.375C25.1621 54.375 24.9228 54.4738 24.7463 54.6496C24.5697 54.8254 24.4706 55.0639 24.4706 55.3125V57.1875C24.4706 58.7381 25.7468 60 27.3167 60H61.1765C62.7332 60 64 58.7381 64 57.1875V21.5625C64 21.5194 63.9812 21.4819 63.9755 21.4406C63.9703 21.4013 63.9621 21.3625 63.9511 21.3244C63.9142 21.1646 63.8349 21.0176 63.7214 20.8988L50.5468 7.77562C50.3986 7.63398 50.2071 7.54558 50.0028 7.52437C49.9633 7.51875 49.9256 7.5 49.8824 7.5H40.4706C40.221 7.5 39.9816 7.59877 39.8051 7.77459C39.6286 7.9504 39.5294 8.18886 39.5294 8.4375C39.5294 8.68614 39.6286 8.9246 39.8051 9.10041C39.9816 9.27623 40.221 9.375 40.4706 9.375ZM51.7647 20.625C51.5151 20.625 51.2757 20.5262 51.0992 20.3504C50.9227 20.1746 50.8235 19.9361 50.8235 19.6875V10.7006L60.7868 20.625H51.7647Z" fill="#7A7E86"/>
<path d="M44.2353 30H55.5294C55.779 30 56.0184 29.9012 56.1949 29.7254C56.3714 29.5496 56.4706 29.3111 56.4706 29.0625C56.4706 28.8139 56.3714 28.5754 56.1949 28.3996C56.0184 28.2238 55.779 28.125 55.5294 28.125H44.2353C43.9857 28.125 43.7463 28.2238 43.5698 28.3996C43.3933 28.5754 43.2941 28.8139 43.2941 29.0625C43.2941 29.3111 43.3933 29.5496 43.5698 29.7254C43.7463 29.9012 43.9857 30 44.2353 30Z" fill="#7A7E86"/>
<path d="M44.2353 37.5H55.5294C55.779 37.5 56.0184 37.4012 56.1949 37.2254C56.3714 37.0496 56.4706 36.8111 56.4706 36.5625C56.4706 36.3139 56.3714 36.0754 56.1949 35.8996C56.0184 35.7238 55.779 35.625 55.5294 35.625H44.2353C43.9857 35.625 43.7463 35.7238 43.5698 35.8996C43.3933 36.0754 43.2941 36.3139 43.2941 36.5625C43.2941 36.8111 43.3933 37.0496 43.5698 37.2254C43.7463 37.4012 43.9857 37.5 44.2353 37.5Z" fill="#7A7E86"/>
<path d="M44.2353 45H55.5294C55.779 45 56.0184 44.9012 56.1949 44.7254C56.3714 44.5496 56.4706 44.3111 56.4706 44.0625C56.4706 43.8139 56.3714 43.5754 56.1949 43.3996C56.0184 43.2238 55.779 43.125 55.5294 43.125H44.2353C43.9857 43.125 43.7463 43.2238 43.5698 43.3996C43.3933 43.5754 43.2941 43.8139 43.2941 44.0625C43.2941 44.3111 43.3933 44.5496 43.5698 44.7254C43.7463 44.9012 43.9857 45 44.2353 45Z" fill="#7A7E86"/>
<path d="M44.2353 52.5H55.5294C55.779 52.5 56.0184 52.4012 56.1949 52.2254C56.3714 52.0496 56.4706 51.8111 56.4706 51.5625C56.4706 51.3139 56.3714 51.0754 56.1949 50.8996C56.0184 50.7238 55.779 50.625 55.5294 50.625H44.2353C43.9857 50.625 43.7463 50.7238 43.5698 50.8996C43.3933 51.0754 43.2941 51.3139 43.2941 51.5625C43.2941 51.8111 43.3933 52.0496 43.5698 52.2254C43.7463 52.4012 43.9857 52.5 44.2353 52.5Z" fill="#7A7E86"/>
</svg>
