<svg width="54" height="71" viewBox="0 0 54 71" fill="none" xmlns="http://www.w3.org/2000/svg">
<path d="M3.55028 70.809H50.1711C52.0071 70.809 53.5012 69.3259 53.5012 67.5034V21.2253C53.5012 21.1879 53.4834 21.157 53.4812 21.1218C53.4768 21.0711 53.4634 21.027 53.4523 20.9785C53.4175 20.8254 53.3493 20.6818 53.2525 20.5576C53.237 20.5378 53.2392 20.5135 53.2237 20.4937L35.4634 0.660263C35.4567 0.653652 35.4478 0.653652 35.4412 0.647041C35.3057 0.506467 35.1347 0.404498 34.9461 0.351743C34.9039 0.338521 34.8662 0.334113 34.8218 0.327502C34.7574 0.316484 34.6974 0.290039 34.6308 0.290039H3.55028C1.7143 0.290039 0.220215 1.77314 0.220215 3.59561V67.5034C0.220215 69.3259 1.7143 70.809 3.55028 70.809ZM35.7409 4.28978L49.9203 20.1235H36.8509C36.3625 20.1235 35.7409 19.1979 35.7409 18.4707V4.28978ZM2.44026 3.59561C2.44026 3.30338 2.5572 3.02312 2.76537 2.81648C2.97354 2.60984 3.25588 2.49376 3.55028 2.49376H33.5208V18.4707C33.5208 20.2535 34.9749 22.3272 36.8509 22.3272H51.2811V67.5034C51.2811 67.7956 51.1642 68.0759 50.956 68.2825C50.7479 68.4892 50.4655 68.6052 50.1711 68.6052H3.55028C2.92866 68.6052 2.44026 68.1204 2.44026 67.5034V3.59561Z" fill="#7A7E86"/>
<path d="M12.4304 31.1421H41.291C41.5854 31.1421 41.8677 31.026 42.0759 30.8193C42.284 30.6127 42.401 30.3324 42.401 30.0402C42.401 29.748 42.284 29.4677 42.0759 29.2611C41.8677 29.0544 41.5854 28.9384 41.291 28.9384H12.4304C12.136 28.9384 11.8537 29.0544 11.6455 29.2611C11.4374 29.4677 11.3204 29.748 11.3204 30.0402C11.3204 30.3324 11.4374 30.6127 11.6455 30.8193C11.8537 31.026 12.136 31.1421 12.4304 31.1421Z" fill="#7A7E86"/>
<path d="M12.4304 39.9569H41.291C41.5854 39.9569 41.8677 39.8408 42.0759 39.6342C42.284 39.4276 42.401 39.1473 42.401 38.8551C42.401 38.5628 42.284 38.2826 42.0759 38.0759C41.8677 37.8693 41.5854 37.7532 41.291 37.7532H12.4304C12.136 37.7532 11.8537 37.8693 11.6455 38.0759C11.4374 38.2826 11.3204 38.5628 11.3204 38.8551C11.3204 39.1473 11.4374 39.4276 11.6455 39.6342C11.8537 39.8408 12.136 39.9569 12.4304 39.9569Z" fill="#7A7E86"/>
<path d="M12.4304 22.3272H25.7507C26.0451 22.3272 26.3274 22.2111 26.5356 22.0045C26.7438 21.7978 26.8607 21.5176 26.8607 21.2253C26.8607 20.9331 26.7438 20.6529 26.5356 20.4462C26.3274 20.2396 26.0451 20.1235 25.7507 20.1235H12.4304C12.136 20.1235 11.8537 20.2396 11.6455 20.4462C11.4374 20.6529 11.3204 20.9331 11.3204 21.2253C11.3204 21.5176 11.4374 21.7978 11.6455 22.0045C11.8537 22.2111 12.136 22.3272 12.4304 22.3272Z" fill="#7A7E86"/>
<path d="M12.4304 48.7718H41.291C41.5854 48.7718 41.8677 48.6557 42.0759 48.4491C42.284 48.2424 42.401 47.9622 42.401 47.6699C42.401 47.3777 42.284 47.0975 42.0759 46.8908C41.8677 46.6842 41.5854 46.5681 41.291 46.5681H12.4304C12.136 46.5681 11.8537 46.6842 11.6455 46.8908C11.4374 47.0975 11.3204 47.3777 11.3204 47.6699C11.3204 47.9622 11.4374 48.2424 11.6455 48.4491C11.8537 48.6557 12.136 48.7718 12.4304 48.7718Z" fill="#7A7E86"/>
<path d="M12.4304 57.5867H41.291C41.5854 57.5867 41.8677 57.4706 42.0759 57.2639C42.284 57.0573 42.401 56.777 42.401 56.4848C42.401 56.1926 42.284 55.9123 42.0759 55.7057C41.8677 55.499 41.5854 55.3829 41.291 55.3829H12.4304C12.136 55.3829 11.8537 55.499 11.6455 55.7057C11.4374 55.9123 11.3204 56.1926 11.3204 56.4848C11.3204 56.777 11.4374 57.0573 11.6455 57.2639C11.8537 57.4706 12.136 57.5867 12.4304 57.5867Z" fill="#7A7E86"/>
</svg>
