<svg width="24" height="41" viewBox="0 0 24 41" fill="none" xmlns="http://www.w3.org/2000/svg">
<path d="M9.09953 29.6427C9.09953 27.7876 9.47867 26.103 10.237 24.5886C10.9953 23.0365 11.9052 21.7304 12.9668 20.6704C14.0284 19.6103 15.09 18.5882 16.1517 17.6039C17.2133 16.6196 18.1232 15.5406 18.8815 14.367C19.6398 13.1556 20.019 11.8684 20.019 10.5055C20.019 8.30979 19.2607 6.66297 17.7441 5.5651C16.2654 4.42936 14.3507 3.86149 12 3.86149C7.33649 3.86149 4.45498 5.77331 3.35545 9.59695L0 7.72299C0.872038 5.18652 2.38863 3.2747 4.54976 1.98753C6.74882 0.662511 9.23223 0 12 0C15.3365 0 18.1611 0.927516 20.4739 2.78255C22.8246 4.59972 24 7.17405 24 10.5055C24 12.1334 23.6209 13.6477 22.8626 15.0485C22.1043 16.4492 21.1943 17.6796 20.1327 18.7396C19.0711 19.7618 18.0095 20.7839 16.9479 21.8061C15.8863 22.8283 14.9763 24.0208 14.218 25.3837C13.4597 26.7087 13.0806 28.1283 13.0806 29.6427H9.09953ZM13.3081 40.0914C12.7014 40.6971 11.9621 41 11.09 41C10.218 41 9.47867 40.6971 8.87204 40.0914C8.2654 39.4857 7.96209 38.7475 7.96209 37.8767C7.96209 37.006 8.2654 36.2678 8.87204 35.662C9.47867 35.0563 10.218 34.7535 11.09 34.7535C11.9621 34.7535 12.7014 35.0563 13.3081 35.662C13.9147 36.2678 14.218 37.006 14.218 37.8767C14.218 38.7475 13.9147 39.4857 13.3081 40.0914Z" fill="#7A7E86"/>
</svg>
