<svg width="64" height="63" viewBox="0 0 64 63" fill="none" xmlns="http://www.w3.org/2000/svg">
<path d="M44.2702 11.9176C44.2702 8.64304 41.6069 5.97886 38.3334 5.97886C35.0594 5.97886 32.3961 8.64304 32.3961 11.9176C32.3961 15.1927 35.0594 17.8569 38.3334 17.8569C41.6069 17.8569 44.2702 15.1927 44.2702 11.9176ZM34.2316 11.9176C34.2316 9.65532 36.0718 7.81494 38.3334 7.81494C40.595 7.81494 42.4348 9.65532 42.4348 11.9176C42.4348 14.1805 40.595 16.0208 38.3334 16.0208C36.0718 16.0208 34.2316 14.18 34.2316 11.9176Z" fill="#7A7E86"/>
<path d="M28.2206 8.76934C28.7275 8.76934 29.1383 8.3584 29.1383 7.8513C29.1383 7.3442 28.7275 6.93326 28.2206 6.93326H25.8079C25.301 6.93326 24.8902 7.3442 24.8902 7.8513C24.8902 8.3584 25.301 8.76934 25.8079 8.76934H28.2206Z" fill="#7A7E86"/>
<path d="M7.66741 8.76934H19.8625C20.3694 8.76934 20.7802 8.3584 20.7802 7.8513C20.7802 7.3442 20.3694 6.93326 19.8625 6.93326H7.66741C7.16048 6.93326 6.74967 7.3442 6.74967 7.8513C6.74967 8.3584 7.16048 8.76934 7.66741 8.76934Z" fill="#7A7E86"/>
<path d="M7.66741 16.902H10.8123C11.3192 16.902 11.73 16.4911 11.73 15.984C11.73 15.4769 11.3192 15.066 10.8123 15.066H7.66741C7.16048 15.066 6.74967 15.4769 6.74967 15.984C6.74967 16.4911 7.16048 16.902 7.66741 16.902Z" fill="#7A7E86"/>
<path d="M16.7582 15.066C16.2513 15.066 15.8405 15.4769 15.8405 15.984C15.8405 16.4911 16.2513 16.902 16.7582 16.902H18.7463C19.2532 16.902 19.664 16.4911 19.664 15.984C19.664 15.4769 19.2532 15.066 18.7463 15.066H16.7582Z" fill="#7A7E86"/>
<path d="M7.66741 12.8357H28.2206C28.7275 12.8357 29.1383 12.4247 29.1383 11.9176C29.1383 11.4106 28.7275 10.9996 28.2206 10.9996H7.66741C7.16048 10.9996 6.74967 11.4106 6.74967 11.9176C6.74967 12.4247 7.16048 12.8357 7.66741 12.8357Z" fill="#7A7E86"/>
<path d="M10.0734 28.0486H40.947C42.7796 28.0486 44.2702 26.557 44.2702 24.7238C44.2702 22.8906 42.7796 21.3994 40.947 21.3994H10.0734C8.24082 21.3994 6.74967 22.8906 6.74967 24.7238C6.74967 26.557 8.24082 28.0486 10.0734 28.0486ZM10.0734 23.2355H40.947C41.7671 23.2355 42.4348 23.9029 42.4348 24.7238C42.4348 25.5447 41.7671 26.2125 40.947 26.2125H10.0734C9.25277 26.2125 8.58515 25.5447 8.58515 24.7238C8.58515 23.9029 9.25277 23.2355 10.0734 23.2355Z" fill="#7A7E86"/>
<path d="M10.0734 36.4698H40.947C42.7796 36.4698 44.2702 34.9782 44.2702 33.1449C44.2702 31.3117 42.7796 29.8206 40.947 29.8206H10.0734C8.24082 29.8206 6.74967 31.3117 6.74967 33.1449C6.74967 34.9782 8.24082 36.4698 10.0734 36.4698ZM10.0734 31.6567H40.947C41.7671 31.6567 42.4348 32.3245 42.4348 33.1449C42.4348 33.9659 41.7671 34.6337 40.947 34.6337H10.0734C9.25277 34.6337 8.58515 33.9659 8.58515 33.1449C8.58515 32.3245 9.25277 31.6567 10.0734 31.6567Z" fill="#7A7E86"/>
<path d="M10.0734 44.891H40.947C42.7796 44.891 44.2702 43.3998 44.2702 41.5666C44.2702 39.7334 42.7796 38.2418 40.947 38.2418H10.0734C8.24082 38.2418 6.74967 39.7334 6.74967 41.5666C6.74967 43.3998 8.24082 44.891 10.0734 44.891ZM10.0734 40.0778H40.947C41.7671 40.0778 42.4348 40.7457 42.4348 41.5666C42.4348 42.387 41.7671 43.0549 40.947 43.0549H10.0734C9.25277 43.0549 8.58515 42.387 8.58515 41.5666C8.58515 40.7457 9.25277 40.0778 10.0734 40.0778Z" fill="#7A7E86"/>
<path d="M10.0734 53.3121H31.7304C33.563 53.3121 35.0541 51.821 35.0541 49.9878C35.0541 48.1546 33.563 46.6629 31.7304 46.6629H10.0734C8.24082 46.6629 6.74967 48.1546 6.74967 49.9878C6.74967 51.821 8.24082 53.3121 10.0734 53.3121ZM10.0734 48.499H31.7304C32.551 48.499 33.2182 49.1668 33.2182 49.9878C33.2182 50.8087 32.551 51.476 31.7304 51.476H10.0734C9.25277 51.476 8.58515 50.8087 8.58515 49.9878C8.58515 49.1668 9.25277 48.499 10.0734 48.499Z" fill="#7A7E86"/>
<path d="M60.3438 49.2812H56.8756V46.2171C56.8756 45.4339 56.4031 44.7599 55.7293 44.4623L57.0741 38.2958C57.46 36.5238 56.9918 34.6395 55.8201 33.255C54.7035 31.9356 53.0722 31.1787 51.3438 31.1787C51.055 31.1787 50.769 31.2017 50.4873 31.2429V3.25728C50.4873 1.57573 49.1196 0.20752 47.4386 0.20752H3.58135C1.90035 0.20752 0.532593 1.57573 0.532593 3.25728V13.1065C0.532593 13.6136 0.943398 14.0245 1.45033 14.0245C1.95726 14.0245 2.36807 13.6136 2.36807 13.1065V3.25728C2.36807 2.58801 2.9123 2.0436 3.58135 2.0436H47.4386C48.1076 2.0436 48.6518 2.58801 48.6518 3.25728V31.8337C47.978 32.1819 47.3702 32.6608 46.8671 33.255C46.1736 34.0749 45.7183 35.069 45.551 36.1296C45.4716 36.6305 45.8135 37.1008 46.3137 37.1797C46.8154 37.2591 47.2846 36.9171 47.364 36.4162C47.4787 35.6876 47.7915 35.0045 48.2683 34.4414C49.0354 33.5348 50.1564 33.0148 51.3438 33.0148C52.5313 33.0148 53.6523 33.5348 54.4194 34.4414C55.2243 35.3924 55.5461 36.687 55.2807 37.9045L53.8862 44.2992H48.8015L47.945 40.3706C47.8369 39.8755 47.3487 39.5616 46.8527 39.6693C46.3573 39.7774 46.0435 40.2668 46.1516 40.7619L46.9584 44.4623C46.2841 44.7599 45.8116 45.4339 45.8116 46.2171V49.2812H42.3439C40.76 49.2812 39.4711 50.57 39.4711 52.1544V54.4938C39.4711 56.0782 40.76 57.367 42.3439 57.367H42.3927L42.9498 59.8403C43.0493 60.2814 43.2191 60.6894 43.4462 61.0545H3.58135C2.9123 61.0545 2.36807 60.51 2.36807 59.8408V17.3192C2.36807 16.8121 1.95726 16.4012 1.45033 16.4012C0.943398 16.4012 0.532593 16.8121 0.532593 17.3192V59.8408C0.532593 61.5223 1.90035 62.891 3.58135 62.891L55.9392 62.879C57.7728 62.879 59.3352 61.6295 59.7379 59.8403L60.295 57.367H60.3438C61.9272 57.367 63.2161 56.0782 63.2161 54.4938V52.1544C63.2161 50.57 61.9272 49.2812 60.3438 49.2812ZM47.6471 46.2171C47.6471 46.1721 47.6839 46.1353 47.7289 46.1353H54.9588C55.0038 46.1353 55.0401 46.1721 55.0401 46.2171V49.2812H47.6471V46.2171ZM57.9473 59.4365C57.734 60.3828 56.9086 61.043 55.9392 61.043H46.7485C45.7791 61.043 44.9536 60.3828 44.7403 59.4365L44.2745 57.367H58.4131L57.9473 59.4365ZM61.3806 54.4938C61.3806 55.0654 60.9153 55.5309 60.3438 55.5309H42.3439C41.7724 55.5309 41.3071 55.0654 41.3071 54.4938V52.1544C41.3071 51.5823 41.7724 51.1173 42.3439 51.1173H60.3438C60.9158 51.1173 61.3806 51.5823 61.3806 52.1544V54.4938Z" fill="#7A7E86"/>
</svg>
