<svg width="101" height="69" viewBox="0 0 101 69" fill="none" xmlns="http://www.w3.org/2000/svg">
<rect x="16.7676" y="9.8418" width="67.0703" height="36.6914" fill="#FFC700"/>
<rect x="32.3516" y="54.6211" width="35.9023" height="6.70703" rx="3.35352" fill="#FFC700"/>
<path d="M99.6191 53.2402H93.6049V5.89648C93.6032 4.48441 93.0415 3.13065 92.0431 2.13216C91.0446 1.13367 89.6908 0.571983 88.2787 0.570312H12.726C11.3139 0.571983 9.96016 1.13367 8.96167 2.13216C7.96318 3.13065 7.4015 4.48441 7.39983 5.89648V53.2402H1.38086C1.01463 53.2402 0.663406 53.3857 0.404444 53.6447C0.145483 53.9036 0 54.2549 0 54.6211L0 60.7363C0.00229732 62.776 0.813583 64.7315 2.25587 66.1738C3.69816 67.6161 5.65366 68.4274 7.69336 68.4297H93.3066C95.3463 68.4274 97.3018 67.6161 98.7441 66.1738C100.186 64.7315 100.998 62.776 101 60.7363V54.6211C101 54.2549 100.855 53.9036 100.596 53.6447C100.337 53.3857 99.9854 53.2402 99.6191 53.2402ZM10.1615 5.89648C10.1624 5.21661 10.4328 4.56481 10.9136 4.08406C11.3943 3.60332 12.0461 3.33287 12.726 3.33203H88.2787C88.9586 3.33287 89.6104 3.60332 90.0912 4.08406C90.5719 4.56481 90.8424 5.21661 90.8432 5.89648V53.2402H10.1615V5.89648ZM34.3242 56.002H66.6758V56.8896C66.6749 57.5695 66.4045 58.2213 65.9238 58.7021C65.443 59.1828 64.7912 59.4533 64.1113 59.4541H36.8887C36.2088 59.4533 35.557 59.1828 35.0763 58.7021C34.5955 58.2213 34.3251 57.5695 34.3242 56.8896V56.002ZM98.2383 60.7363C98.2368 62.0438 97.7168 63.2974 96.7922 64.2219C95.8677 65.1465 94.6141 65.6665 93.3066 65.668H7.69336C6.38586 65.6665 5.13232 65.1465 4.20778 64.2219C3.28323 63.2974 2.76318 62.0438 2.76172 60.7363V56.002H31.5625V56.8896C31.5642 58.3017 32.1259 59.6555 33.1243 60.654C34.1228 61.6525 35.4766 62.2141 36.8887 62.2158H64.1113C65.5234 62.2141 66.8772 61.6525 67.8757 60.654C68.8741 59.6555 69.4358 58.3017 69.4375 56.8896V56.002H98.2383V60.7363Z" fill="black"/>
<path d="M85.7142 46.7305V9.8418C85.7142 9.47557 85.5688 9.12434 85.3098 8.86538C85.0508 8.60642 84.6996 8.46094 84.3334 8.46094H16.6713C16.305 8.46094 15.9538 8.60642 15.6949 8.86538C15.4359 9.12434 15.2904 9.47557 15.2904 9.8418V46.7305C15.2904 47.0967 15.4359 47.4479 15.6949 47.7069C15.9538 47.9658 16.305 48.1113 16.6713 48.1113H84.3334C84.6996 48.1113 85.0508 47.9658 85.3098 47.7069C85.5688 47.4479 85.7142 47.0967 85.7142 46.7305ZM82.9525 45.3496H18.0521V11.2227H82.9525V45.3496Z" fill="black"/>
<path d="M42.4713 36.3148C42.5995 36.4431 42.7517 36.5449 42.9192 36.6144C43.0868 36.6839 43.2664 36.7196 43.4478 36.7196C43.6292 36.7196 43.8087 36.6839 43.9763 36.6144C44.1438 36.5449 44.2961 36.4431 44.4242 36.3148L58.5287 22.2103C58.7877 21.9513 58.9332 21.6001 58.9332 21.2338C58.9332 20.8676 58.7877 20.5163 58.5287 20.2574C58.2698 19.9984 57.9185 19.8529 57.5523 19.8529C57.186 19.8529 56.8348 19.9984 56.5758 20.2574L42.4713 34.3619C42.2125 34.6209 42.0671 34.9721 42.0671 35.3383C42.0671 35.7045 42.2125 36.0557 42.4713 36.3148Z" fill="black"/>
<path d="M53.4929 33.1926C53.7521 33.4512 54.1033 33.5964 54.4694 33.5964C54.8355 33.5964 55.1867 33.4512 55.4458 33.1926L63.3057 25.3327C63.4339 25.2045 63.5356 25.0523 63.605 24.8847C63.6744 24.7172 63.7102 24.5376 63.7102 24.3563C63.7102 24.1749 63.6744 23.9954 63.605 23.8278C63.5356 23.6603 63.4339 23.508 63.3057 23.3798C63.1775 23.2516 63.0252 23.1499 62.8577 23.0805C62.6901 23.0111 62.5106 22.9753 62.3292 22.9753C62.1479 22.9753 61.9683 23.0111 61.8008 23.0805C61.6332 23.1499 61.481 23.2516 61.3528 23.3798L53.4929 31.2397C53.2341 31.4987 53.0887 31.8499 53.0887 32.2161C53.0887 32.5823 53.2341 32.9335 53.4929 33.1926Z" fill="black"/>
<path d="M38.6759 33.5965C38.8572 33.5969 39.0368 33.5614 39.2043 33.492C39.3718 33.4227 39.5239 33.3209 39.6519 33.1925L47.511 25.3327C47.6429 25.2053 47.7481 25.053 47.8206 24.8845C47.893 24.716 47.9311 24.5349 47.9327 24.3515C47.9343 24.1682 47.8994 23.9863 47.83 23.8166C47.7607 23.6469 47.6582 23.4927 47.5285 23.363C47.3989 23.2333 47.2447 23.1308 47.0751 23.0613C46.9054 22.9918 46.7235 22.9569 46.5402 22.9584C46.3568 22.96 46.1756 22.998 46.0072 23.0704C45.8387 23.1427 45.6863 23.2479 45.5589 23.3797L37.699 31.2396C37.506 31.4327 37.3746 31.6788 37.3214 31.9466C37.2682 32.2145 37.2956 32.4921 37.4001 32.7444C37.5047 32.9966 37.6817 33.2122 37.9088 33.3639C38.1359 33.5156 38.4028 33.5965 38.6759 33.5965Z" fill="black"/>
</svg>
