<svg width="76" height="76" viewBox="0 0 76 76" fill="none" xmlns="http://www.w3.org/2000/svg">
<circle cx="38" cy="38" r="21" fill="#FFC700"/>
<mask id="path-2-outside-1" maskUnits="userSpaceOnUse" x="0.101318" y="0.109375" width="76" height="76" fill="black">
<rect fill="white" x="0.101318" y="0.109375" width="76" height="76"/>
<path d="M32.6362 38.8748C31.4529 38.8748 30.4945 38.4415 29.7612 37.5748C29.0445 36.6915 28.6862 35.5415 28.6862 34.1248C28.6862 32.7082 29.0445 31.5665 29.7612 30.6998C30.4945 29.8165 31.4529 29.3748 32.6362 29.3748C33.8029 29.3748 34.7529 29.8082 35.4862 30.6748C36.2195 31.5415 36.5862 32.6915 36.5862 34.1248C36.5862 35.5582 36.2195 36.7082 35.4862 37.5748C34.7529 38.4415 33.8029 38.8748 32.6362 38.8748ZM43.2362 29.4998H44.7112L32.7612 46.9998H31.2862L43.2362 29.4998ZM32.6362 37.7498C33.4529 37.7498 34.1029 37.4332 34.5862 36.7998C35.0862 36.1498 35.3362 35.2582 35.3362 34.1248C35.3362 32.9915 35.0862 32.1082 34.5862 31.4748C34.1029 30.8248 33.4529 30.4998 32.6362 30.4998C31.8029 30.4998 31.1445 30.8248 30.6612 31.4748C30.1779 32.1248 29.9362 33.0082 29.9362 34.1248C29.9362 35.2415 30.1779 36.1248 30.6612 36.7748C31.1445 37.4248 31.8029 37.7498 32.6362 37.7498ZM43.3612 47.1248C42.1945 47.1248 41.2445 46.6915 40.5112 45.8248C39.7779 44.9415 39.4112 43.7915 39.4112 42.3748C39.4112 40.9582 39.7779 39.8165 40.5112 38.9498C41.2445 38.0665 42.1945 37.6248 43.3612 37.6248C44.5445 37.6248 45.4945 38.0665 46.2112 38.9498C46.9445 39.8165 47.3112 40.9582 47.3112 42.3748C47.3112 43.7915 46.9445 44.9415 46.2112 45.8248C45.4945 46.6915 44.5445 47.1248 43.3612 47.1248ZM43.3612 45.9998C44.1945 45.9998 44.8529 45.6748 45.3362 45.0248C45.8195 44.3748 46.0612 43.4915 46.0612 42.3748C46.0612 41.2582 45.8195 40.3748 45.3362 39.7248C44.8529 39.0748 44.1945 38.7498 43.3612 38.7498C42.5445 38.7498 41.8862 39.0748 41.3862 39.7248C40.9029 40.3582 40.6612 41.2415 40.6612 42.3748C40.6612 43.5082 40.9029 44.3998 41.3862 45.0498C41.8862 45.6832 42.5445 45.9998 43.3612 45.9998Z"/>
<path d="M69.7787 55.6343C69.5975 55.634 69.4195 55.5871 69.2618 55.4981C69.1041 55.409 68.972 55.2808 68.8782 55.1258C68.7845 54.9708 68.7322 54.7943 68.7266 54.6132C68.7209 54.4322 68.762 54.2527 68.8458 54.0922C71.2563 49.4281 72.5894 44.2824 72.7468 39.0346C72.9042 33.7868 71.882 28.5705 69.7555 23.7702C69.6414 23.515 69.6334 23.2249 69.7332 22.9638C69.8331 22.7027 70.0325 22.4919 70.2878 22.3778C70.543 22.2638 70.8331 22.2558 71.0942 22.3556C71.3553 22.4554 71.5661 22.6549 71.6802 22.9101C73.9359 28.0014 75.0201 33.534 74.8528 39.1001C74.6855 44.6662 73.271 50.1238 70.7136 55.0704C70.6241 55.2408 70.4897 55.3834 70.3248 55.4828C70.16 55.5822 69.9711 55.6346 69.7787 55.6343Z"/>
<path d="M54.7289 70.7494C54.4931 70.7494 54.2641 70.6704 54.0784 70.525C53.8928 70.3796 53.7613 70.1761 53.705 69.9471C53.6487 69.7181 53.6707 69.4769 53.7677 69.2619C53.8647 69.047 54.0309 68.8707 54.2398 68.7614C55.1558 68.2818 56.0317 67.7738 56.8307 67.2509C57.0651 67.0984 57.3505 67.0453 57.624 67.1032C57.8976 67.1611 58.137 67.3254 58.2895 67.5598C58.442 67.7942 58.4951 68.0796 58.4372 68.3531C58.3793 68.6267 58.2151 68.8661 57.9806 69.0186C57.1216 69.5772 56.1888 70.119 55.2159 70.6292C55.0656 70.7078 54.8985 70.7491 54.7289 70.7494Z"/>
<path d="M38.0263 74.8845C28.2353 74.8872 18.8437 71.0028 11.9153 64.0846C11.7233 63.8858 11.6171 63.6196 11.6195 63.3432C11.6219 63.0668 11.7327 62.8025 11.9281 62.607C12.1236 62.4116 12.3879 62.3007 12.6643 62.2983C12.9407 62.2959 13.2069 62.4022 13.4057 62.5942C17.7772 66.9577 23.2301 70.0805 29.2058 71.6426C35.1815 73.2047 41.4651 73.15 47.4127 71.4841C47.6819 71.4086 47.9701 71.4432 48.2138 71.5802C48.4575 71.7171 48.6369 71.9453 48.7123 72.2145C48.7878 72.4838 48.7533 72.7719 48.6163 73.0157C48.4793 73.2594 48.2511 73.4387 47.9819 73.5142C44.7415 74.4235 41.3919 74.8846 38.0263 74.8845Z"/>
<path d="M63.1708 64.5515C62.9539 64.5515 62.7423 64.4846 62.5649 64.3599C62.3875 64.2352 62.2528 64.0588 62.1792 63.8548C62.1057 63.6508 62.0969 63.4291 62.154 63.2199C62.2111 63.0107 62.3313 62.8242 62.4983 62.6858C62.5341 62.6563 62.5637 62.6247 62.5942 62.5941C63.273 61.9142 63.9213 61.2048 64.521 60.486C64.6079 60.3749 64.7161 60.2824 64.8393 60.2139C64.9625 60.1454 65.0982 60.1023 65.2384 60.0872C65.3785 60.0721 65.5203 60.0852 65.6553 60.1258C65.7903 60.1664 65.9157 60.2337 66.0242 60.3237C66.1328 60.4137 66.2221 60.5245 66.2871 60.6496C66.352 60.7748 66.3912 60.9117 66.4023 61.0522C66.4134 61.1927 66.3962 61.334 66.3517 61.4678C66.3072 61.6016 66.2363 61.7251 66.1432 61.831C65.5024 62.6025 64.8109 63.3604 64.0857 64.0845C64.0092 64.1632 63.9287 64.2378 63.8443 64.308C63.6551 64.4653 63.4169 64.5514 63.1708 64.5515Z"/>
<path d="M5.46766 54.1098C5.26641 54.1099 5.06934 54.0524 4.89974 53.9441C4.73014 53.8358 4.5951 53.6811 4.51057 53.4985C0.872928 45.6344 0.118826 36.741 2.38042 28.3767C4.64201 20.0124 9.77502 12.7108 16.88 7.75139C23.9849 2.79196 32.6086 0.491094 41.2397 1.25197C49.8709 2.01285 57.959 5.78695 64.0868 11.9129C64.1847 12.0108 64.2624 12.1271 64.3154 12.255C64.3684 12.383 64.3957 12.5201 64.3957 12.6586C64.3957 12.7971 64.3684 12.9343 64.3154 13.0622C64.2624 13.1902 64.1847 13.3064 64.0868 13.4044C63.9888 13.5023 63.8726 13.58 63.7446 13.633C63.6167 13.686 63.4795 13.7133 63.341 13.7133C63.2025 13.7133 63.0654 13.686 62.9374 13.633C62.8095 13.58 62.6932 13.5023 62.5953 13.4044C56.8175 7.62857 49.1915 4.07028 41.0534 3.35305C32.9153 2.63582 24.7844 4.8054 18.0855 9.4816C11.3866 14.1578 6.54702 21.0423 4.41479 28.9288C2.28257 36.8152 2.99374 45.2005 6.42368 52.6152C6.49799 52.7758 6.53069 52.9524 6.51876 53.129C6.50683 53.3055 6.45065 53.4762 6.35541 53.6253C6.26017 53.7744 6.12893 53.8971 5.97379 53.9822C5.81864 54.0672 5.64458 54.1119 5.46766 54.1119V54.1098Z"/>
<path d="M63.341 13.7133L55.4773 13.7124C55.1977 13.7124 54.9296 13.6014 54.7319 13.4037C54.5343 13.206 54.4232 12.9379 54.4232 12.6584C54.4232 12.3788 54.5343 12.1107 54.7319 11.9131C54.9296 11.7154 55.1977 11.6043 55.4773 11.6043H62.2875V4.79726C62.2875 4.5177 62.3986 4.2496 62.5962 4.05193C62.7939 3.85425 63.062 3.7432 63.3416 3.7432C63.6211 3.7432 63.8892 3.85425 64.0869 4.05193C64.2846 4.2496 64.3956 4.5177 64.3956 4.79726V12.6616C64.3948 12.9406 64.2834 13.2078 64.0858 13.4048C63.8882 13.6018 63.62 13.7133 63.341 13.7133Z"/>
<path d="M12.6584 72.2565C12.3789 72.2565 12.1108 72.1454 11.9131 71.9477C11.7154 71.7501 11.6044 71.482 11.6044 71.2024V63.3413C11.6044 63.0617 11.7154 62.7936 11.9131 62.596C12.1108 62.3983 12.3789 62.2872 12.6584 62.2872H20.5227C20.8023 62.2872 21.0704 62.3983 21.268 62.596C21.4657 62.7936 21.5768 63.0617 21.5768 63.3413C21.5768 63.6208 21.4657 63.8889 21.268 64.0866C21.0704 64.2843 20.8023 64.3953 20.5227 64.3953H13.7125V71.2024C13.7125 71.482 13.6014 71.7501 13.4037 71.9477C13.2061 72.1454 12.938 72.2565 12.6584 72.2565Z"/>
<path d="M38 61.1891C33.4136 61.1891 28.9302 59.8291 25.1168 57.281C21.3033 54.7329 18.3311 51.1113 16.576 46.874C14.8208 42.6367 14.3616 37.9742 15.2564 33.4759C16.1511 28.9776 18.3597 24.8457 21.6028 21.6026C24.8458 18.3596 28.9777 16.151 33.476 15.2563C37.9743 14.3615 42.6368 14.8207 46.8741 16.5759C51.1114 18.331 54.733 21.3032 57.2811 25.1167C59.8292 28.9301 61.1892 33.4135 61.1892 37.9999C61.1822 44.1479 58.7368 50.0421 54.3895 54.3894C50.0422 58.7367 44.148 61.1821 38 61.1891ZM38 16.9188C33.8305 16.9188 29.7547 18.1552 26.288 20.4716C22.8212 22.788 20.1192 26.0804 18.5236 29.9325C16.928 33.7846 16.5106 38.0233 17.324 42.1126C18.1374 46.2019 20.1452 49.9582 23.0934 52.9065C26.0417 55.8547 29.7979 57.8625 33.8873 58.6759C37.9766 59.4893 42.2153 59.0718 46.0674 57.4763C49.9194 55.8807 53.2118 53.1787 55.5283 49.7119C57.8447 46.2451 59.0811 42.1693 59.0811 37.9999C59.0746 32.4108 56.8516 27.0525 52.8995 23.1004C48.9474 19.1483 43.5891 16.9252 38 16.9188Z"/>
</mask>
<path d="M32.6362 38.8748C31.4529 38.8748 30.4945 38.4415 29.7612 37.5748C29.0445 36.6915 28.6862 35.5415 28.6862 34.1248C28.6862 32.7082 29.0445 31.5665 29.7612 30.6998C30.4945 29.8165 31.4529 29.3748 32.6362 29.3748C33.8029 29.3748 34.7529 29.8082 35.4862 30.6748C36.2195 31.5415 36.5862 32.6915 36.5862 34.1248C36.5862 35.5582 36.2195 36.7082 35.4862 37.5748C34.7529 38.4415 33.8029 38.8748 32.6362 38.8748ZM43.2362 29.4998H44.7112L32.7612 46.9998H31.2862L43.2362 29.4998ZM32.6362 37.7498C33.4529 37.7498 34.1029 37.4332 34.5862 36.7998C35.0862 36.1498 35.3362 35.2582 35.3362 34.1248C35.3362 32.9915 35.0862 32.1082 34.5862 31.4748C34.1029 30.8248 33.4529 30.4998 32.6362 30.4998C31.8029 30.4998 31.1445 30.8248 30.6612 31.4748C30.1779 32.1248 29.9362 33.0082 29.9362 34.1248C29.9362 35.2415 30.1779 36.1248 30.6612 36.7748C31.1445 37.4248 31.8029 37.7498 32.6362 37.7498ZM43.3612 47.1248C42.1945 47.1248 41.2445 46.6915 40.5112 45.8248C39.7779 44.9415 39.4112 43.7915 39.4112 42.3748C39.4112 40.9582 39.7779 39.8165 40.5112 38.9498C41.2445 38.0665 42.1945 37.6248 43.3612 37.6248C44.5445 37.6248 45.4945 38.0665 46.2112 38.9498C46.9445 39.8165 47.3112 40.9582 47.3112 42.3748C47.3112 43.7915 46.9445 44.9415 46.2112 45.8248C45.4945 46.6915 44.5445 47.1248 43.3612 47.1248ZM43.3612 45.9998C44.1945 45.9998 44.8529 45.6748 45.3362 45.0248C45.8195 44.3748 46.0612 43.4915 46.0612 42.3748C46.0612 41.2582 45.8195 40.3748 45.3362 39.7248C44.8529 39.0748 44.1945 38.7498 43.3612 38.7498C42.5445 38.7498 41.8862 39.0748 41.3862 39.7248C40.9029 40.3582 40.6612 41.2415 40.6612 42.3748C40.6612 43.5082 40.9029 44.3998 41.3862 45.0498C41.8862 45.6832 42.5445 45.9998 43.3612 45.9998Z" fill="black"/>
<path d="M69.7787 55.6343C69.5975 55.634 69.4195 55.5871 69.2618 55.4981C69.1041 55.409 68.972 55.2808 68.8782 55.1258C68.7845 54.9708 68.7322 54.7943 68.7266 54.6132C68.7209 54.4322 68.762 54.2527 68.8458 54.0922C71.2563 49.4281 72.5894 44.2824 72.7468 39.0346C72.9042 33.7868 71.882 28.5705 69.7555 23.7702C69.6414 23.515 69.6334 23.2249 69.7332 22.9638C69.8331 22.7027 70.0325 22.4919 70.2878 22.3778C70.543 22.2638 70.8331 22.2558 71.0942 22.3556C71.3553 22.4554 71.5661 22.6549 71.6802 22.9101C73.9359 28.0014 75.0201 33.534 74.8528 39.1001C74.6855 44.6662 73.271 50.1238 70.7136 55.0704C70.6241 55.2408 70.4897 55.3834 70.3248 55.4828C70.16 55.5822 69.9711 55.6346 69.7787 55.6343Z" fill="black"/>
<path d="M54.7289 70.7494C54.4931 70.7494 54.2641 70.6704 54.0784 70.525C53.8928 70.3796 53.7613 70.1761 53.705 69.9471C53.6487 69.7181 53.6707 69.4769 53.7677 69.2619C53.8647 69.047 54.0309 68.8707 54.2398 68.7614C55.1558 68.2818 56.0317 67.7738 56.8307 67.2509C57.0651 67.0984 57.3505 67.0453 57.624 67.1032C57.8976 67.1611 58.137 67.3254 58.2895 67.5598C58.442 67.7942 58.4951 68.0796 58.4372 68.3531C58.3793 68.6267 58.2151 68.8661 57.9806 69.0186C57.1216 69.5772 56.1888 70.119 55.2159 70.6292C55.0656 70.7078 54.8985 70.7491 54.7289 70.7494Z" fill="black"/>
<path d="M38.0263 74.8845C28.2353 74.8872 18.8437 71.0028 11.9153 64.0846C11.7233 63.8858 11.6171 63.6196 11.6195 63.3432C11.6219 63.0668 11.7327 62.8025 11.9281 62.607C12.1236 62.4116 12.3879 62.3007 12.6643 62.2983C12.9407 62.2959 13.2069 62.4022 13.4057 62.5942C17.7772 66.9577 23.2301 70.0805 29.2058 71.6426C35.1815 73.2047 41.4651 73.15 47.4127 71.4841C47.6819 71.4086 47.9701 71.4432 48.2138 71.5802C48.4575 71.7171 48.6369 71.9453 48.7123 72.2145C48.7878 72.4838 48.7533 72.7719 48.6163 73.0157C48.4793 73.2594 48.2511 73.4387 47.9819 73.5142C44.7415 74.4235 41.3919 74.8846 38.0263 74.8845Z" fill="black"/>
<path d="M63.1708 64.5515C62.9539 64.5515 62.7423 64.4846 62.5649 64.3599C62.3875 64.2352 62.2528 64.0588 62.1792 63.8548C62.1057 63.6508 62.0969 63.4291 62.154 63.2199C62.2111 63.0107 62.3313 62.8242 62.4983 62.6858C62.5341 62.6563 62.5637 62.6247 62.5942 62.5941C63.273 61.9142 63.9213 61.2048 64.521 60.486C64.6079 60.3749 64.7161 60.2824 64.8393 60.2139C64.9625 60.1454 65.0982 60.1023 65.2384 60.0872C65.3785 60.0721 65.5203 60.0852 65.6553 60.1258C65.7903 60.1664 65.9157 60.2337 66.0242 60.3237C66.1328 60.4137 66.2221 60.5245 66.2871 60.6496C66.352 60.7748 66.3912 60.9117 66.4023 61.0522C66.4134 61.1927 66.3962 61.334 66.3517 61.4678C66.3072 61.6016 66.2363 61.7251 66.1432 61.831C65.5024 62.6025 64.8109 63.3604 64.0857 64.0845C64.0092 64.1632 63.9287 64.2378 63.8443 64.308C63.6551 64.4653 63.4169 64.5514 63.1708 64.5515Z" fill="black"/>
<path d="M5.46766 54.1098C5.26641 54.1099 5.06934 54.0524 4.89974 53.9441C4.73014 53.8358 4.5951 53.6811 4.51057 53.4985C0.872928 45.6344 0.118826 36.741 2.38042 28.3767C4.64201 20.0124 9.77502 12.7108 16.88 7.75139C23.9849 2.79196 32.6086 0.491094 41.2397 1.25197C49.8709 2.01285 57.959 5.78695 64.0868 11.9129C64.1847 12.0108 64.2624 12.1271 64.3154 12.255C64.3684 12.383 64.3957 12.5201 64.3957 12.6586C64.3957 12.7971 64.3684 12.9343 64.3154 13.0622C64.2624 13.1902 64.1847 13.3064 64.0868 13.4044C63.9888 13.5023 63.8726 13.58 63.7446 13.633C63.6167 13.686 63.4795 13.7133 63.341 13.7133C63.2025 13.7133 63.0654 13.686 62.9374 13.633C62.8095 13.58 62.6932 13.5023 62.5953 13.4044C56.8175 7.62857 49.1915 4.07028 41.0534 3.35305C32.9153 2.63582 24.7844 4.8054 18.0855 9.4816C11.3866 14.1578 6.54702 21.0423 4.41479 28.9288C2.28257 36.8152 2.99374 45.2005 6.42368 52.6152C6.49799 52.7758 6.53069 52.9524 6.51876 53.129C6.50683 53.3055 6.45065 53.4762 6.35541 53.6253C6.26017 53.7744 6.12893 53.8971 5.97379 53.9822C5.81864 54.0672 5.64458 54.1119 5.46766 54.1119V54.1098Z" fill="black"/>
<path d="M63.341 13.7133L55.4773 13.7124C55.1977 13.7124 54.9296 13.6014 54.7319 13.4037C54.5343 13.206 54.4232 12.9379 54.4232 12.6584C54.4232 12.3788 54.5343 12.1107 54.7319 11.9131C54.9296 11.7154 55.1977 11.6043 55.4773 11.6043H62.2875V4.79726C62.2875 4.5177 62.3986 4.2496 62.5962 4.05193C62.7939 3.85425 63.062 3.7432 63.3416 3.7432C63.6211 3.7432 63.8892 3.85425 64.0869 4.05193C64.2846 4.2496 64.3956 4.5177 64.3956 4.79726V12.6616C64.3948 12.9406 64.2834 13.2078 64.0858 13.4048C63.8882 13.6018 63.62 13.7133 63.341 13.7133Z" fill="black"/>
<path d="M12.6584 72.2565C12.3789 72.2565 12.1108 72.1454 11.9131 71.9477C11.7154 71.7501 11.6044 71.482 11.6044 71.2024V63.3413C11.6044 63.0617 11.7154 62.7936 11.9131 62.596C12.1108 62.3983 12.3789 62.2872 12.6584 62.2872H20.5227C20.8023 62.2872 21.0704 62.3983 21.268 62.596C21.4657 62.7936 21.5768 63.0617 21.5768 63.3413C21.5768 63.6208 21.4657 63.8889 21.268 64.0866C21.0704 64.2843 20.8023 64.3953 20.5227 64.3953H13.7125V71.2024C13.7125 71.482 13.6014 71.7501 13.4037 71.9477C13.2061 72.1454 12.938 72.2565 12.6584 72.2565Z" fill="black"/>
<path d="M38 61.1891C33.4136 61.1891 28.9302 59.8291 25.1168 57.281C21.3033 54.7329 18.3311 51.1113 16.576 46.874C14.8208 42.6367 14.3616 37.9742 15.2564 33.4759C16.1511 28.9776 18.3597 24.8457 21.6028 21.6026C24.8458 18.3596 28.9777 16.151 33.476 15.2563C37.9743 14.3615 42.6368 14.8207 46.8741 16.5759C51.1114 18.331 54.733 21.3032 57.2811 25.1167C59.8292 28.9301 61.1892 33.4135 61.1892 37.9999C61.1822 44.1479 58.7368 50.0421 54.3895 54.3894C50.0422 58.7367 44.148 61.1821 38 61.1891ZM38 16.9188C33.8305 16.9188 29.7547 18.1552 26.288 20.4716C22.8212 22.788 20.1192 26.0804 18.5236 29.9325C16.928 33.7846 16.5106 38.0233 17.324 42.1126C18.1374 46.2019 20.1452 49.9582 23.0934 52.9065C26.0417 55.8547 29.7979 57.8625 33.8873 58.6759C37.9766 59.4893 42.2153 59.0718 46.0674 57.4763C49.9194 55.8807 53.2118 53.1787 55.5283 49.7119C57.8447 46.2451 59.0811 42.1693 59.0811 37.9999C59.0746 32.4108 56.8516 27.0525 52.8995 23.1004C48.9474 19.1483 43.5891 16.9252 38 16.9188Z" fill="black"/>
<path d="M29.7612 37.5748L29.3729 37.8899L29.3795 37.8978L29.7612 37.5748ZM29.7612 30.6998L29.3765 30.3804L29.3759 30.3812L29.7612 30.6998ZM35.4862 30.6748L35.8679 30.3519L35.4862 30.6748ZM35.4862 37.5748L35.8679 37.8978L35.4862 37.5748ZM43.2362 29.4998V28.9998H42.9722L42.8233 29.2179L43.2362 29.4998ZM44.7112 29.4998L45.1241 29.7818L45.6581 28.9998H44.7112V29.4998ZM32.7612 46.9998V47.4998H33.0252L33.1741 47.2818L32.7612 46.9998ZM31.2862 46.9998L30.8733 46.7179L30.3393 47.4998H31.2862V46.9998ZM34.5862 36.7998L34.1899 36.495L34.1887 36.4965L34.5862 36.7998ZM34.5862 31.4748L34.185 31.7732L34.1893 31.779L34.1938 31.7846L34.5862 31.4748ZM30.6612 31.4748L30.26 31.1765L30.6612 31.4748ZM40.5112 45.8248L40.1265 46.1442L40.1295 46.1478L40.5112 45.8248ZM40.5112 38.9498L40.8929 39.2728L40.8959 39.2692L40.5112 38.9498ZM46.2112 38.9498L45.8229 39.2649L45.8295 39.2728L46.2112 38.9498ZM46.2112 45.8248L45.8265 45.5055L45.8259 45.5062L46.2112 45.8248ZM45.3362 45.0248L44.935 44.7265L45.3362 45.0248ZM45.3362 39.7248L44.935 40.0232L45.3362 39.7248ZM41.3862 39.7248L40.9899 39.42L40.9887 39.4215L41.3862 39.7248ZM41.3862 45.0498L40.985 45.3482L40.9893 45.354L40.9938 45.3596L41.3862 45.0498ZM69.7787 55.6343L69.7795 55.1343H69.7794L69.7787 55.6343ZM68.8458 54.0922L69.289 54.3237L69.29 54.3218L68.8458 54.0922ZM69.7555 23.7702L70.2126 23.5677L70.212 23.5662L69.7555 23.7702ZM71.6802 22.9101L72.1373 22.7076L72.1367 22.7061L71.6802 22.9101ZM70.7136 55.0704L71.1563 55.3029L71.1578 55.3L70.7136 55.0704ZM54.7289 70.7494L54.729 71.2494H54.7297L54.7289 70.7494ZM54.2398 68.7614L54.4716 69.2044L54.4717 69.2044L54.2398 68.7614ZM56.8307 67.2509L56.558 66.8318L56.5569 66.8326L56.8307 67.2509ZM57.9806 69.0186L58.2532 69.4378L58.2533 69.4377L57.9806 69.0186ZM55.2159 70.6292L55.4477 71.0722L55.4481 71.072L55.2159 70.6292ZM38.0263 74.8845L38.0264 74.3845H38.0262L38.0263 74.8845ZM11.9153 64.0846L11.5556 64.432L11.562 64.4384L11.9153 64.0846ZM13.4057 62.5942L13.759 62.2403L13.7531 62.2345L13.4057 62.5942ZM47.4127 71.4841L47.5476 71.9656L47.5477 71.9655L47.4127 71.4841ZM47.9819 73.5142L47.8469 73.0328L47.8468 73.0328L47.9819 73.5142ZM63.1708 64.5515L63.1708 65.0515H63.1709L63.1708 64.5515ZM62.4983 62.6858L62.1805 62.2998L62.1793 62.3008L62.4983 62.6858ZM62.5942 62.5941L62.9478 62.9476L62.9481 62.9474L62.5942 62.5941ZM64.521 60.486L64.905 60.8063L64.9101 60.8002L64.915 60.7939L64.521 60.486ZM66.1432 61.831L65.7675 61.5008L65.7586 61.5115L66.1432 61.831ZM64.0857 64.0845L63.7324 63.7307L63.7273 63.736L64.0857 64.0845ZM63.8443 64.308L64.164 64.6925L64.1643 64.6922L63.8443 64.308ZM5.46766 54.1098H5.96766V53.6096L5.46742 53.6098L5.46766 54.1098ZM4.51057 53.4985L4.05677 53.7084L4.05681 53.7085L4.51057 53.4985ZM64.0868 11.9129L64.4403 11.5593L64.4403 11.5593L64.0868 11.9129ZM64.3957 12.6586H63.8957H64.3957ZM62.5953 13.4044L62.9488 13.0508L62.9488 13.0508L62.5953 13.4044ZM6.42368 52.6152L5.96988 52.8251L5.96992 52.8252L6.42368 52.6152ZM5.46766 54.1119H4.96766V54.6122L5.46792 54.6119L5.46766 54.1119ZM55.4773 13.7124L55.4773 13.2124H55.4773V13.7124ZM55.4773 11.6043V11.1043V11.6043ZM62.2875 11.6043V12.1043H62.7875V11.6043H62.2875ZM63.3416 3.7432V4.2432V3.7432ZM64.3956 12.6616L64.8956 12.6631V12.6616H64.3956ZM13.7125 64.3953V63.8953H13.2125V64.3953H13.7125ZM38 61.1891V61.6891H38.0006L38 61.1891ZM61.1892 37.9999L61.6892 38.0005V37.9999H61.1892ZM38 16.9188L38.0006 16.4188H38V16.9188ZM59.0811 37.9999H59.5811V37.9993L59.0811 37.9999ZM32.6362 38.3748C31.5928 38.3748 30.7767 38.0009 30.1429 37.2519L29.3795 37.8978C30.2124 38.8821 31.3129 39.3748 32.6362 39.3748V38.3748ZM30.1495 37.2598C29.5214 36.4857 29.1862 35.4557 29.1862 34.1248H28.1862C28.1862 35.6273 28.5677 36.8973 29.3729 37.8899L30.1495 37.2598ZM29.1862 34.1248C29.1862 32.7935 29.5216 31.7742 30.1465 31.0185L29.3759 30.3812C28.5675 31.3588 28.1862 32.6228 28.1862 34.1248H29.1862ZM30.1459 31.0192C30.7809 30.2543 31.5963 29.8748 32.6362 29.8748V28.8748C31.3094 28.8748 30.2082 29.3787 29.3765 30.3804L30.1459 31.0192ZM32.6362 29.8748C33.6605 29.8748 34.4692 30.2469 35.1045 30.9978L35.8679 30.3519C35.0366 29.3694 33.9453 28.8748 32.6362 28.8748V29.8748ZM35.1045 30.9978C35.7431 31.7525 36.0862 32.7779 36.0862 34.1248H37.0862C37.0862 32.6051 36.696 31.3305 35.8679 30.3519L35.1045 30.9978ZM36.0862 34.1248C36.0862 35.4718 35.7431 36.4972 35.1045 37.2519L35.8679 37.8978C36.696 36.9192 37.0862 35.6445 37.0862 34.1248H36.0862ZM35.1045 37.2519C34.4692 38.0027 33.6605 38.3748 32.6362 38.3748V39.3748C33.9453 39.3748 35.0366 38.8803 35.8679 37.8978L35.1045 37.2519ZM43.2362 29.9998H44.7112V28.9998H43.2362V29.9998ZM44.2983 29.2179L32.3483 46.7179L33.1741 47.2818L45.1241 29.7818L44.2983 29.2179ZM32.7612 46.4998H31.2862V47.4998H32.7612V46.4998ZM31.6991 47.2818L43.6491 29.7818L42.8233 29.2179L30.8733 46.7179L31.6991 47.2818ZM32.6362 38.2498C33.6042 38.2498 34.403 37.864 34.9837 37.1032L34.1887 36.4965C33.8027 37.0023 33.3016 37.2498 32.6362 37.2498V38.2498ZM34.9825 37.1047C35.5713 36.3393 35.8362 35.327 35.8362 34.1248H34.8362C34.8362 35.1893 34.6012 35.9603 34.1899 36.495L34.9825 37.1047ZM35.8362 34.1248C35.8362 32.9237 35.5717 31.9162 34.9787 31.165L34.1938 31.7846C34.6008 32.3002 34.8362 33.0593 34.8362 34.1248H35.8362ZM34.9874 31.1765C34.4089 30.3984 33.6094 29.9998 32.6362 29.9998V30.9998C33.2963 30.9998 33.7969 31.2513 34.185 31.7732L34.9874 31.1765ZM32.6362 29.9998C31.6501 29.9998 30.8408 30.3954 30.26 31.1765L31.0624 31.7732C31.4483 31.2543 31.9556 30.9998 32.6362 30.9998V29.9998ZM30.26 31.1765C29.6922 31.94 29.4362 32.9406 29.4362 34.1248H30.4362C30.4362 33.0758 30.6635 32.3096 31.0624 31.7732L30.26 31.1765ZM29.4362 34.1248C29.4362 35.3091 29.6922 36.3096 30.26 37.0732L31.0624 36.4765C30.6635 35.94 30.4362 35.1739 30.4362 34.1248H29.4362ZM30.26 37.0732C30.8408 37.8543 31.6501 38.2498 32.6362 38.2498V37.2498C31.9556 37.2498 31.4483 36.9954 31.0624 36.4765L30.26 37.0732ZM43.3612 46.6248C42.3369 46.6248 41.5283 46.2527 40.8929 45.5019L40.1295 46.1478C40.9608 47.1303 42.0522 47.6248 43.3612 47.6248V46.6248ZM40.8959 45.5055C40.2533 44.7314 39.9112 43.703 39.9112 42.3748H38.9112C38.9112 43.88 39.3025 45.1516 40.1265 46.1442L40.8959 45.5055ZM39.9112 42.3748C39.9112 41.0462 40.2535 40.0285 40.8929 39.2728L40.1295 38.6269C39.3023 39.6045 38.9112 40.8701 38.9112 42.3748H39.9112ZM40.8959 39.2692C41.5325 38.5024 42.3405 38.1248 43.3612 38.1248V37.1248C42.0486 37.1248 40.9566 37.6306 40.1265 38.6304L40.8959 39.2692ZM43.3612 38.1248C44.4009 38.1248 45.2055 38.5039 45.8229 39.2648L46.5995 38.6348C45.7836 37.6291 44.6882 37.1248 43.3612 37.1248V38.1248ZM45.8295 39.2728C46.469 40.0285 46.8112 41.0462 46.8112 42.3748H47.8112C47.8112 40.8701 47.4201 39.6045 46.5929 38.6269L45.8295 39.2728ZM46.8112 42.3748C46.8112 43.703 46.4691 44.7314 45.8265 45.5055L46.5959 46.1442C47.42 45.1516 47.8112 43.88 47.8112 42.3748H46.8112ZM45.8259 45.5062C45.2098 46.2513 44.4044 46.6248 43.3612 46.6248V47.6248C44.6847 47.6248 45.7793 47.1317 46.5965 46.1435L45.8259 45.5062ZM43.3612 46.4998C44.3473 46.4998 45.1566 46.1043 45.7374 45.3232L44.935 44.7265C44.5491 45.2454 44.0418 45.4998 43.3612 45.4998V46.4998ZM45.7374 45.3232C46.3052 44.5596 46.5612 43.5591 46.5612 42.3748H45.5612C45.5612 43.4239 45.3339 44.19 44.935 44.7265L45.7374 45.3232ZM46.5612 42.3748C46.5612 41.1906 46.3052 40.19 45.7374 39.4265L44.935 40.0232C45.3339 40.5596 45.5612 41.3258 45.5612 42.3748H46.5612ZM45.7374 39.4265C45.1566 38.6454 44.3473 38.2498 43.3612 38.2498V39.2498C44.0418 39.2498 44.5491 39.5043 44.935 40.0232L45.7374 39.4265ZM43.3612 38.2498C42.3886 38.2498 41.5841 38.6475 40.9899 39.42L41.7825 40.0297C42.1883 39.5021 42.7005 39.2498 43.3612 39.2498V38.2498ZM40.9887 39.4215C40.416 40.172 40.1612 41.1769 40.1612 42.3748H41.1612C41.1612 41.3061 41.3898 40.5443 41.7837 40.0282L40.9887 39.4215ZM40.1612 42.3748C40.1612 43.5738 40.4164 44.5835 40.985 45.3482L41.7874 44.7515C41.3894 44.2161 41.1612 43.4425 41.1612 42.3748H40.1612ZM40.9938 45.3596C41.5899 46.1148 42.3937 46.4998 43.3612 46.4998V45.4998C42.6954 45.4998 42.1825 45.2515 41.7787 44.74L40.9938 45.3596ZM69.7794 55.1343C69.6841 55.1342 69.5906 55.1095 69.5077 55.0627L69.0159 55.9334C69.2485 56.0647 69.5109 56.1339 69.778 56.1343L69.7794 55.1343ZM69.5077 55.0627C69.4248 55.0159 69.3553 54.9485 69.306 54.867L68.4504 55.3846C68.5886 55.6131 68.7834 55.8021 69.0159 55.9334L69.5077 55.0627ZM69.306 54.867C69.2568 54.7855 69.2293 54.6927 69.2263 54.5976L68.2268 54.6289C68.2352 54.8958 68.3122 55.1561 68.4504 55.3846L69.306 54.867ZM69.2263 54.5976C69.2233 54.5024 69.2449 54.4081 69.289 54.3237L68.4026 53.8607C68.279 54.0974 68.2184 54.362 68.2268 54.6289L69.2263 54.5976ZM69.29 54.3218C71.7348 49.5911 73.0869 44.3722 73.2466 39.0496L72.247 39.0196C72.0918 44.1927 70.7778 49.265 68.4016 53.8626L69.29 54.3218ZM73.2466 39.0496C73.4063 33.727 72.3695 28.4364 70.2126 23.5677L69.2983 23.9727C71.3946 28.7046 72.4022 33.8465 72.247 39.0196L73.2466 39.0496ZM70.212 23.5662C70.152 23.4321 70.1478 23.2796 70.2003 23.1423L69.2662 22.7852C69.119 23.1702 69.1308 23.5979 69.299 23.9742L70.212 23.5662ZM70.2003 23.1423C70.2528 23.0051 70.3576 22.8943 70.4918 22.8343L70.0838 21.9213C69.7075 22.0895 69.4134 22.4002 69.2662 22.7852L70.2003 23.1423ZM70.4918 22.8343C70.6259 22.7744 70.7784 22.7702 70.9157 22.8226L71.2728 21.8886C70.8878 21.7414 70.4601 21.7532 70.0838 21.9213L70.4918 22.8343ZM70.9157 22.8226C71.0529 22.8751 71.1637 22.98 71.2237 23.1141L72.1367 22.7061C71.9685 22.3298 71.6577 22.0357 71.2728 21.8886L70.9157 22.8226ZM71.223 23.1127C73.4484 28.1355 74.5181 33.5938 74.353 39.0851L75.3526 39.1151C75.5221 33.4743 74.4234 27.8673 72.1373 22.7076L71.223 23.1127ZM74.353 39.0851C74.188 44.5764 72.7925 49.9606 70.2695 54.8407L71.1578 55.3C73.7495 50.2869 75.183 44.756 75.3526 39.1151L74.353 39.0851ZM70.271 54.8379C70.2239 54.9274 70.1532 55.0024 70.0666 55.0547L70.5831 55.911C70.8261 55.7644 71.0243 55.5541 71.1563 55.3029L70.271 54.8379ZM70.0666 55.0547C69.98 55.1069 69.8807 55.1345 69.7795 55.1343L69.7778 56.1343C70.0616 56.1348 70.3401 56.0575 70.5831 55.911L70.0666 55.0547ZM54.7287 70.2494C54.6048 70.2494 54.4844 70.2079 54.3868 70.1314L53.7701 70.9186C54.0437 71.133 54.3814 71.2495 54.729 71.2494L54.7287 70.2494ZM54.3868 70.1314C54.2893 70.055 54.2201 69.948 54.1905 69.8277L53.2195 70.0666C53.3025 70.4042 53.4964 70.7041 53.7701 70.9186L54.3868 70.1314ZM54.1905 69.8277C54.1609 69.7073 54.1725 69.5805 54.2235 69.4675L53.3119 69.0564C53.169 69.3733 53.1364 69.729 53.2195 70.0666L54.1905 69.8277ZM54.2235 69.4675C54.2744 69.3545 54.3618 69.2619 54.4716 69.2044L54.008 68.3184C53.6999 68.4796 53.4548 68.7394 53.3119 69.0564L54.2235 69.4675ZM54.4717 69.2044C55.3998 68.7184 56.29 68.2023 57.1044 67.6693L56.5569 66.8326C55.7734 67.3452 54.9117 67.8452 54.0079 68.3184L54.4717 69.2044ZM57.1033 67.6701C57.2266 67.5899 57.3766 67.5619 57.5205 67.5924L57.7276 66.6141C57.3243 66.5287 56.9036 66.607 56.558 66.8318L57.1033 67.6701ZM57.5205 67.5924C57.6643 67.6228 57.7902 67.7092 57.8704 67.8324L58.7086 67.2871C58.4838 66.9416 58.1309 66.6994 57.7276 66.6141L57.5205 67.5924ZM57.8704 67.8324C57.9506 67.9557 57.9785 68.1057 57.948 68.2496L58.9264 68.4567C59.0117 68.0534 58.9334 67.6327 58.7086 67.2871L57.8704 67.8324ZM57.948 68.2496C57.9176 68.3934 57.8312 68.5193 57.708 68.5995L58.2533 69.4377C58.5989 69.2129 58.841 68.86 58.9264 68.4567L57.948 68.2496ZM57.7081 68.5994C56.8635 69.1486 55.9443 69.6826 54.9837 70.1864L55.4481 71.072C56.4332 70.5554 57.3797 70.0058 58.2532 69.4378L57.7081 68.5994ZM54.984 70.1862C54.905 70.2275 54.8172 70.2492 54.728 70.2494L54.7297 71.2494C54.9798 71.2489 55.2261 71.1882 55.4477 71.0722L54.984 70.1862ZM38.0262 74.3845C28.3677 74.3872 19.1033 70.5553 12.2686 63.7308L11.562 64.4384C18.5842 71.4502 28.1029 75.3873 38.0265 75.3845L38.0262 74.3845ZM12.275 63.7373C12.174 63.6328 12.1182 63.4928 12.1194 63.3475L11.1195 63.3389C11.1159 63.7463 11.2726 64.1389 11.5557 64.432L12.275 63.7373ZM12.1194 63.3475C12.1207 63.2023 12.179 63.0633 12.2817 62.9606L11.5746 62.2535C11.2865 62.5416 11.123 62.9314 11.1195 63.3389L12.1194 63.3475ZM12.2817 62.9606C12.3844 62.8579 12.5234 62.7996 12.6687 62.7983L12.66 61.7984C12.2525 61.8019 11.8627 61.9653 11.5746 62.2535L12.2817 62.9606ZM12.6687 62.7983C12.8139 62.7971 12.9539 62.8529 13.0584 62.9538L13.7531 62.2345C13.46 61.9515 13.0674 61.7948 12.66 61.7984L12.6687 62.7983ZM13.0525 62.9481C17.4867 67.3742 23.0179 70.5418 29.0793 72.1264L29.3323 71.1589C23.4423 69.6191 18.0676 66.5412 13.759 62.2403L13.0525 62.9481ZM29.0793 72.1264C35.1408 73.7109 41.5146 73.6554 47.5476 71.9656L47.2778 71.0026C41.4156 72.6447 35.2222 72.6986 29.3323 71.1589L29.0793 72.1264ZM47.5477 71.9655C47.6892 71.9258 47.8407 71.944 47.9688 72.016L48.4588 71.1443C48.0995 70.9423 47.6746 70.8914 47.2777 71.0026L47.5477 71.9655ZM47.9688 72.016C48.097 72.088 48.1912 72.208 48.2309 72.3495L49.1938 72.0796C49.0825 71.6827 48.8181 71.3462 48.4588 71.1443L47.9688 72.016ZM48.2309 72.3495C48.2706 72.4911 48.2524 72.6425 48.1804 72.7707L49.0521 73.2606C49.2541 72.9013 49.305 72.4765 49.1938 72.0796L48.2309 72.3495ZM48.1804 72.7707C48.1084 72.8988 47.9884 72.9931 47.8469 73.0328L48.1169 73.9956C48.5138 73.8844 48.8502 73.62 49.0521 73.2606L48.1804 72.7707ZM47.8468 73.0328C44.6504 73.9298 41.3462 74.3846 38.0264 74.3845L38.0263 75.3845C41.4375 75.3846 44.8326 74.9173 48.117 73.9956L47.8468 73.0328ZM63.1708 64.0515C63.0568 64.0515 62.9456 64.0163 62.8523 63.9508L62.2775 64.769C62.5391 64.9528 62.851 65.0514 63.1708 65.0515L63.1708 64.0515ZM62.8523 63.9508C62.7591 63.8852 62.6883 63.7925 62.6496 63.6853L61.7089 64.0244C61.8173 64.3252 62.0158 64.5852 62.2775 64.769L62.8523 63.9508ZM62.6496 63.6853C62.611 63.578 62.6063 63.4615 62.6363 63.3515L61.6716 63.0882C61.5874 63.3967 61.6004 63.7236 61.7089 64.0244L62.6496 63.6853ZM62.6363 63.3515C62.6663 63.2416 62.7296 63.1435 62.8173 63.0708L62.1793 62.3008C61.9331 62.5048 61.7558 62.7798 61.6716 63.0882L62.6363 63.3515ZM62.8162 63.0718C62.8765 63.0221 62.9323 62.9631 62.9478 62.9476L62.2407 62.2405C62.2315 62.2497 62.2221 62.2592 62.2156 62.2659C62.2082 62.2733 62.2027 62.2788 62.1977 62.2838C62.1878 62.2935 62.1829 62.2978 62.1805 62.2998L62.8162 63.0718ZM62.9481 62.9474C63.6371 62.2572 64.2955 61.5368 64.905 60.8063L64.1371 60.1657C63.5471 60.8728 62.9089 61.5712 62.2404 62.2408L62.9481 62.9474ZM64.915 60.7939C64.9606 60.7355 65.0175 60.6869 65.0823 60.6509L64.5963 59.7769C64.4147 59.8779 64.2551 60.0143 64.1271 60.178L64.915 60.7939ZM65.0823 60.6509C65.147 60.6149 65.2183 60.5922 65.292 60.5843L65.1847 59.5901C64.9781 59.6124 64.778 59.6759 64.5963 59.7769L65.0823 60.6509ZM65.292 60.5843C65.3657 60.5763 65.4402 60.5832 65.5112 60.6046L65.7994 59.647C65.6003 59.5871 65.3913 59.5678 65.1847 59.5901L65.292 60.5843ZM65.5112 60.6046C65.5821 60.626 65.6481 60.6613 65.7051 60.7086L66.3434 59.9388C66.1834 59.8062 65.9984 59.7069 65.7994 59.647L65.5112 60.6046ZM65.7051 60.7086C65.7622 60.7559 65.8091 60.8142 65.8433 60.8799L66.7309 60.4193C66.6351 60.2349 66.5034 60.0715 66.3434 59.9388L65.7051 60.7086ZM65.8433 60.8799C65.8774 60.9457 65.898 61.0177 65.9038 61.0915L66.9007 61.0128C66.8844 60.8056 66.8266 60.6038 66.7309 60.4193L65.8433 60.8799ZM65.9038 61.0915C65.9097 61.1654 65.9006 61.2397 65.8772 61.31L66.8261 61.6256C66.8917 61.4284 66.9171 61.22 66.9007 61.0128L65.9038 61.0915ZM65.8772 61.31C65.8538 61.3803 65.8166 61.4452 65.7677 61.5009L66.5188 62.161C66.656 62.0049 66.7605 61.8228 66.8261 61.6256L65.8772 61.31ZM65.7586 61.5115C65.1278 62.271 64.4468 63.0174 63.7324 63.7307L64.439 64.4383C65.1751 63.7034 65.877 62.934 66.5279 62.1504L65.7586 61.5115ZM63.7273 63.736C63.663 63.8021 63.5953 63.8647 63.5244 63.9237L64.1643 64.6922C64.262 64.6108 64.3555 64.5243 64.4442 64.4331L63.7273 63.736ZM63.5247 63.9235C63.4253 64.0062 63.3 64.0514 63.1707 64.0515L63.1709 65.0515C63.5337 65.0514 63.885 64.9244 64.164 64.6925L63.5247 63.9235ZM5.46742 53.6098C5.36163 53.6099 5.25805 53.5797 5.1689 53.5227L4.63058 54.3655C4.88063 54.5252 5.17119 54.61 5.46789 54.6098L5.46742 53.6098ZM5.1689 53.5227C5.07975 53.4658 5.00877 53.3845 4.96434 53.2885L4.05681 53.7085C4.18143 53.9778 4.38053 54.2057 4.63058 54.3655L5.1689 53.5227ZM4.96438 53.2886C1.37602 45.5311 0.63214 36.7582 2.86309 28.5072L1.89775 28.2462C-0.394488 36.7238 0.369832 45.7378 4.05677 53.7084L4.96438 53.2886ZM2.86309 28.5072C5.09403 20.2563 10.1575 13.0536 17.1662 8.16138L16.5938 7.34139C9.39256 12.368 4.18999 19.7686 1.89775 28.2462L2.86309 28.5072ZM17.1662 8.16138C24.1748 3.26916 32.6816 0.999473 41.1958 1.75004L41.2837 0.753905C32.5355 -0.0172851 23.795 2.31476 16.5938 7.34139L17.1662 8.16138ZM41.1958 1.75004C49.7101 2.50061 57.6886 6.22356 63.7333 12.2665L64.4403 11.5593C58.2295 5.35033 50.0318 1.5251 41.2837 0.753905L41.1958 1.75004ZM63.7332 12.2664C63.7847 12.3179 63.8256 12.3791 63.8534 12.4464L64.7773 12.0637C64.6992 11.8751 64.5847 11.7037 64.4403 11.5593L63.7332 12.2664ZM63.8534 12.4464C63.8813 12.5137 63.8957 12.5858 63.8957 12.6586H64.8957C64.8957 12.4545 64.8554 12.2523 64.7773 12.0637L63.8534 12.4464ZM63.8957 12.6586C63.8957 12.7315 63.8813 12.8036 63.8534 12.8709L64.7773 13.2536C64.8554 13.065 64.8957 12.8628 64.8957 12.6586H63.8957ZM63.8534 12.8709C63.8256 12.9382 63.7847 12.9993 63.7332 13.0508L64.4403 13.7579C64.5847 13.6136 64.6992 13.4422 64.7773 13.2536L63.8534 12.8709ZM63.7332 13.0508C63.6817 13.1023 63.6206 13.1432 63.5533 13.1711L63.936 14.0949C64.1246 14.0168 64.296 13.9023 64.4403 13.7579L63.7332 13.0508ZM63.5533 13.1711C63.486 13.1989 63.4139 13.2133 63.341 13.2133V14.2133C63.5452 14.2133 63.7473 14.1731 63.936 14.0949L63.5533 13.1711ZM63.341 13.2133C63.2682 13.2133 63.1961 13.1989 63.1288 13.1711L62.7461 14.0949C62.9347 14.1731 63.1369 14.2133 63.341 14.2133V13.2133ZM63.1288 13.1711C63.0615 13.1432 63.0003 13.1023 62.9488 13.0508L62.2417 13.7579C62.3861 13.9023 62.5575 14.0168 62.7461 14.0949L63.1288 13.1711ZM62.9488 13.0508C57.088 7.19195 49.3523 3.58252 41.0973 2.85498L41.0095 3.85112C49.0306 4.55804 56.5471 8.06519 62.2418 13.758L62.9488 13.0508ZM41.0973 2.85498C32.8423 2.12744 24.5945 4.3282 17.7993 9.07161L18.3717 9.89159C24.9744 5.28259 32.9884 3.14419 41.0095 3.85112L41.0973 2.85498ZM17.7993 9.07161C11.0042 13.815 6.09499 20.7985 3.93212 28.7983L4.89746 29.0593C6.99904 21.2862 11.7691 14.5006 18.3717 9.89159L17.7993 9.07161ZM3.93212 28.7983C1.76925 36.7981 2.49065 45.3038 5.96988 52.8251L6.87748 52.4053C3.49683 45.0971 2.79588 36.8324 4.89746 29.0593L3.93212 28.7983ZM5.96992 52.8252C6.00898 52.9096 6.02617 53.0025 6.0199 53.0953L7.01762 53.1627C7.03521 52.9024 6.987 52.6419 6.87745 52.4052L5.96992 52.8252ZM6.0199 53.0953C6.01363 53.188 5.9841 53.2778 5.93404 53.3561L6.77679 53.8944C6.91721 53.6746 7.00003 53.423 7.01762 53.1627L6.0199 53.0953ZM5.93404 53.3561C5.88397 53.4345 5.81499 53.499 5.73344 53.5437L6.21414 54.4206C6.44288 54.2952 6.63637 54.1143 6.77679 53.8944L5.93404 53.3561ZM5.73344 53.5437C5.65188 53.5884 5.56039 53.6119 5.46739 53.6119L5.46792 54.6119C5.72878 54.6118 5.9854 54.546 6.21414 54.4206L5.73344 53.5437ZM5.96766 54.1119V54.1098H4.96766V54.1119H5.96766ZM63.3411 13.2133L55.4773 13.2124L55.4772 14.2124L63.341 14.2133L63.3411 13.2133ZM55.4773 13.2124C55.3303 13.2124 55.1894 13.1541 55.0855 13.0502L54.3784 13.7573C54.6698 14.0487 55.0651 14.2124 55.4773 14.2124V13.2124ZM55.0855 13.0502C54.9816 12.9463 54.9232 12.8053 54.9232 12.6584H53.9232C53.9232 13.0705 54.0869 13.4658 54.3784 13.7573L55.0855 13.0502ZM54.9232 12.6584C54.9232 12.5114 54.9816 12.3705 55.0855 12.2666L54.3784 11.5595C54.0869 11.851 53.9232 12.2462 53.9232 12.6584H54.9232ZM55.0855 12.2666C55.1894 12.1627 55.3303 12.1043 55.4773 12.1043V11.1043C55.0651 11.1043 54.6698 11.2681 54.3784 11.5595L55.0855 12.2666ZM55.4773 12.1043H62.2875V11.1043H55.4773V12.1043ZM62.7875 11.6043V4.79726H61.7875V11.6043H62.7875ZM62.7875 4.79726C62.7875 4.65031 62.8459 4.50938 62.9498 4.40548L62.2427 3.69837C61.9512 3.98982 61.7875 4.3851 61.7875 4.79726H62.7875ZM62.9498 4.40548C63.0537 4.30158 63.1946 4.2432 63.3416 4.2432V3.2432C62.9294 3.2432 62.5341 3.40693 62.2427 3.69837L62.9498 4.40548ZM63.3416 4.2432C63.4885 4.2432 63.6294 4.30158 63.7333 4.40548L64.4404 3.69837C64.149 3.40693 63.7537 3.2432 63.3416 3.2432V4.2432ZM63.7333 4.40548C63.8372 4.50939 63.8956 4.65031 63.8956 4.79726H64.8956C64.8956 4.38509 64.7319 3.98981 64.4404 3.69837L63.7333 4.40548ZM63.8956 4.79726V12.6616H64.8956V4.79726H63.8956ZM63.8956 12.6601C63.8952 12.8067 63.8366 12.9472 63.7328 13.0508L64.4388 13.7589C64.7301 13.4685 64.8944 13.0744 64.8956 12.6631L63.8956 12.6601ZM63.7328 13.0508C63.6284 13.1548 63.4869 13.2133 63.341 13.2133L63.341 14.2133C63.7531 14.2133 64.148 14.0488 64.4388 13.7589L63.7328 13.0508ZM12.6584 71.7565C12.5115 71.7565 12.3705 71.6981 12.2666 71.5942L11.5595 72.3013C11.851 72.5927 12.2463 72.7565 12.6584 72.7565V71.7565ZM12.2666 71.5942C12.1627 71.4903 12.1044 71.3494 12.1044 71.2024H11.1044C11.1044 71.6146 11.2681 72.0099 11.5595 72.3013L12.2666 71.5942ZM12.1044 71.2024V63.3413H11.1044V71.2024H12.1044ZM12.1044 63.3413C12.1044 63.1943 12.1627 63.0534 12.2666 62.9495L11.5595 62.2424C11.2681 62.5339 11.1044 62.9291 11.1044 63.3413H12.1044ZM12.2666 62.9495C12.3705 62.8456 12.5115 62.7872 12.6584 62.7872V61.7872C12.2463 61.7872 11.851 61.951 11.5595 62.2424L12.2666 62.9495ZM12.6584 62.7872H20.5227V61.7872H12.6584V62.7872ZM20.5227 62.7872C20.6697 62.7872 20.8106 62.8456 20.9145 62.9495L21.6216 62.2424C21.3302 61.951 20.9349 61.7872 20.5227 61.7872V62.7872ZM20.9145 62.9495C21.0184 63.0534 21.0768 63.1944 21.0768 63.3413H22.0768C22.0768 62.9291 21.913 62.5339 21.6216 62.2424L20.9145 62.9495ZM21.0768 63.3413C21.0768 63.4882 21.0184 63.6292 20.9145 63.7331L21.6216 64.4402C21.913 64.1487 22.0768 63.7535 22.0768 63.3413H21.0768ZM20.9145 63.7331C20.8106 63.837 20.6697 63.8953 20.5227 63.8953V64.8953C20.9349 64.8953 21.3302 64.7316 21.6216 64.4402L20.9145 63.7331ZM20.5227 63.8953H13.7125V64.8953H20.5227V63.8953ZM13.2125 64.3953V71.2024H14.2125V64.3953H13.2125ZM13.2125 71.2024C13.2125 71.3494 13.1541 71.4903 13.0502 71.5942L13.7573 72.3013C14.0487 72.0099 14.2125 71.6146 14.2125 71.2024H13.2125ZM13.0502 71.5942C12.9463 71.6981 12.8054 71.7565 12.6584 71.7565V72.7565C13.0706 72.7565 13.4659 72.5927 13.7573 72.3013L13.0502 71.5942ZM38 60.6891C33.5125 60.6891 29.1258 59.3584 25.3945 56.8653L24.839 57.6967C28.7346 60.2997 33.3147 61.6891 38 61.6891V60.6891ZM25.3945 56.8653C21.6633 54.3721 18.7552 50.8286 17.0379 46.6827L16.114 47.0653C17.907 51.394 20.9433 55.0937 24.839 57.6967L25.3945 56.8653ZM17.0379 46.6827C15.3206 42.5368 14.8713 37.9747 15.7468 33.5734L14.766 33.3783C13.8519 37.9736 14.3211 42.7367 16.114 47.0653L17.0379 46.6827ZM15.7468 33.5734C16.6222 29.1722 18.7832 25.1293 21.9563 21.9562L21.2492 21.2491C17.9362 24.5621 15.68 28.7831 14.766 33.3783L15.7468 33.5734ZM21.9563 21.9562C25.1294 18.7831 29.1723 16.6221 33.5735 15.7467L33.3784 14.7659C28.7832 15.6799 24.5622 17.9361 21.2492 21.2491L21.9563 21.9562ZM33.5735 15.7467C37.9748 14.8712 42.5368 15.3205 46.6828 17.0378L47.0654 16.1139C42.7368 14.3209 37.9737 13.8518 33.3784 14.7659L33.5735 15.7467ZM46.6828 17.0378C50.8287 18.7551 54.3722 21.6632 56.8654 25.3944L57.6968 24.8389C55.0938 20.9432 51.3941 17.9069 47.0654 16.1139L46.6828 17.0378ZM56.8654 25.3944C59.3585 29.1257 60.6892 33.5124 60.6892 37.9999H61.6892C61.6892 33.3146 60.2998 28.7345 57.6968 24.8389L56.8654 25.3944ZM60.6892 37.9993C60.6823 44.0149 58.2896 49.7822 54.036 54.0359L54.7431 54.743C59.184 50.302 61.682 44.2809 61.6892 38.0005L60.6892 37.9993ZM54.036 54.0359C49.7823 58.2895 44.015 60.6822 37.9994 60.6891L38.0006 61.6891C44.281 61.6819 50.3021 59.1839 54.7431 54.743L54.036 54.0359ZM38 16.4188C33.7317 16.4188 29.5592 17.6845 26.0102 20.0559L26.5657 20.8873C29.9503 18.6259 33.9294 17.4188 38 17.4188V16.4188ZM26.0102 20.0559C22.4612 22.4272 19.6951 25.7977 18.0617 29.7412L18.9855 30.1238C20.5433 26.3631 23.1812 23.1488 26.5657 20.8873L26.0102 20.0559ZM18.0617 29.7412C16.4282 33.6846 16.0009 38.0238 16.8336 42.2101L17.8144 42.015C17.0202 38.0227 17.4278 33.8845 18.9855 30.1238L18.0617 29.7412ZM16.8336 42.2101C17.6663 46.3965 19.7217 50.2418 22.7399 53.26L23.447 52.5529C20.5686 49.6746 18.6085 46.0074 17.8144 42.015L16.8336 42.2101ZM22.7399 53.26C25.758 56.2782 29.6034 58.3336 33.7897 59.1663L33.9848 58.1855C29.9925 57.3914 26.3253 55.4312 23.447 52.5529L22.7399 53.26ZM33.7897 59.1663C37.976 59.999 42.3153 59.5716 46.2587 57.9382L45.876 57.0143C42.1153 58.5721 37.9771 58.9796 33.9848 58.1855L33.7897 59.1663ZM46.2587 57.9382C50.2021 56.3048 53.5726 53.5387 55.944 49.9897L55.1125 49.4341C52.851 52.8187 49.6367 55.4566 45.876 57.0143L46.2587 57.9382ZM55.944 49.9897C58.3154 46.4407 59.5811 42.2682 59.5811 37.9999H58.5811C58.5811 42.0704 57.374 46.0496 55.1125 49.4341L55.944 49.9897ZM59.5811 37.9993C59.5745 32.2778 57.2987 26.7925 53.253 22.7468L52.5459 23.4539C56.4044 27.3124 58.5748 32.5438 58.5811 38.0005L59.5811 37.9993ZM53.253 22.7468C49.2073 18.7011 43.722 16.4254 38.0006 16.4188L37.9994 17.4188C43.4561 17.4251 48.6875 19.5955 52.5459 23.4539L53.253 22.7468Z" fill="black" mask="url(#path-2-outside-1)"/>
</svg>
