<svg width="78" height="78" viewBox="0 0 78 78" fill="none" xmlns="http://www.w3.org/2000/svg">
<g clip-path="url(#clip0)">
<circle cx="39" cy="39" r="24" fill="#FFC700"/>
<path d="M39.1621 13.6353C25.1763 13.6353 13.7975 25.0134 13.7975 38.9998C13.7975 52.9856 25.1763 64.3644 39.1621 64.3644C53.1485 64.3644 64.5266 52.9856 64.5266 38.9998C64.5266 25.0134 53.1485 13.6353 39.1621 13.6353ZM26.396 57.5609V48.6699C26.4029 45.9342 28.4454 43.6306 31.1604 43.296C34.7488 47.478 40.9531 48.1893 45.3941 44.9278C46.0438 44.4527 46.6367 43.9055 47.1616 43.296C49.878 43.6306 51.9205 45.9335 51.9281 48.6699V57.5609C48.2047 60.0612 43.8919 61.5274 39.1621 61.5274C34.4323 61.5274 30.1194 60.0612 26.396 57.5609ZM54.765 55.2483V48.6699C54.7533 44.1133 51.0596 40.4238 46.5023 40.4183C46.0514 40.4183 45.6268 40.6337 45.3595 40.9973C43.9106 42.9698 41.6097 44.1355 39.1621 44.1355C36.7144 44.1355 34.4129 42.9698 32.964 40.9973C32.6973 40.6337 32.2727 40.4183 31.8219 40.4183C27.2652 40.4238 23.5709 44.1133 23.5591 48.6699V55.2483C19.1334 51.0012 16.6296 45.1335 16.6261 38.9998C16.6261 26.5779 26.7361 16.4722 39.1579 16.4722C51.5798 16.4722 61.6952 26.5786 61.6952 38.9998C61.6932 45.1335 59.1901 51.0012 54.765 55.2483Z" fill="black"/>
<path d="M73.59 42.979C73.9329 39.8165 73.8498 36.6223 73.3442 33.4813L77.2698 29.7163C77.6992 29.3049 77.826 28.6691 77.5877 28.124L73.1184 17.9074C72.8773 17.3561 72.3149 17.0167 71.7145 17.0617L66.2803 17.4614C64.3244 14.9444 62.0035 12.7337 59.3944 10.9024L59.5537 5.47378C59.5717 4.8726 59.2081 4.32544 58.6471 4.10866L48.2483 0.0950177C47.6894 -0.120382 47.055 0.0382243 46.6637 0.49188L43.1425 4.5727C39.9794 4.23056 36.7844 4.31298 33.6434 4.81858L29.8784 0.892897C29.467 0.463483 28.8312 0.336737 28.2861 0.574992L18.0702 5.04575C17.5189 5.28678 17.1795 5.84917 17.2238 6.44897L17.6235 11.8838C15.1066 13.8397 12.8958 16.1607 11.0645 18.769L5.63589 18.6097C5.03402 18.5896 4.48617 18.9539 4.27077 19.517L0.257824 29.9151C0.0417314 30.474 0.200338 31.1077 0.653993 31.4998L4.73551 35.021C4.39267 38.1834 4.47509 41.3777 4.98138 44.5186L1.05501 48.2836C0.625596 48.695 0.49885 49.3308 0.737798 49.8759L5.20786 60.0918C5.44889 60.6432 6.01128 60.9825 6.61177 60.9382L12.0459 60.5386C14.0019 63.0555 16.3228 65.2663 18.9311 67.0975L18.7718 72.5262C18.7538 73.1273 19.1174 73.6745 19.6791 73.8913L30.0779 77.9049C30.6368 78.121 31.2712 77.9624 31.6626 77.5081L35.1831 73.4265C38.3455 73.7694 41.5398 73.687 44.6807 73.1814L48.4457 77.107C48.8578 77.5365 49.493 77.6632 50.038 77.4249L60.2546 72.9549C60.8053 72.7139 61.1446 72.1515 61.1003 71.5517L60.7007 66.1175C63.2176 64.1609 65.4284 61.84 67.2596 59.2309L72.6883 59.3902C73.2894 59.4075 73.8366 59.0439 74.0534 58.4829L78.067 48.0842C78.2824 47.5252 78.1238 46.8915 77.6702 46.4995L73.59 42.979ZM71.7678 56.5249L66.5691 56.3719C66.0794 56.3566 65.6175 56.5956 65.3467 57.0035C63.4683 59.8245 61.1128 62.2978 58.3867 64.3119C57.9954 64.6014 57.7793 65.071 57.8153 65.5565L58.1976 70.7579L49.8081 74.428L46.2066 70.6728C45.8769 70.3292 45.3969 70.1741 44.928 70.26C41.5807 70.8722 38.1592 70.9609 34.7848 70.5218C34.3118 70.4601 33.8394 70.6402 33.5277 71.0017L30.1672 74.8976L21.6371 71.6064L21.7895 66.407C21.804 65.9187 21.5658 65.4567 21.1592 65.1852C18.3376 63.3062 15.8643 60.9514 13.8502 58.2253C13.5607 57.834 13.0911 57.6185 12.6056 57.6539L7.40411 58.0362L3.734 49.6467L7.48861 46.0451C7.83283 45.7155 7.98798 45.2355 7.90209 44.7666C7.28914 41.4192 7.20118 37.9978 7.64029 34.6234C7.70193 34.1504 7.52116 33.678 7.16031 33.3663L3.26372 30.0044L6.55567 21.4743L11.755 21.6274C12.2433 21.6412 12.7053 21.403 12.9768 20.9957C14.8558 18.1748 17.2107 15.7022 19.9375 13.6874C20.3288 13.3986 20.5442 12.9283 20.5082 12.4435L20.1259 7.24131L28.5154 3.5712L32.1169 7.3265C32.4466 7.67003 32.9273 7.82517 33.3955 7.73998C36.7435 7.12633 40.1664 7.03768 43.5414 7.47748C44.0145 7.53913 44.4868 7.35836 44.7985 6.99751L48.1597 3.10161L56.6891 6.39356L56.536 11.5922C56.5215 12.0812 56.7598 12.5432 57.167 12.8147C59.988 14.693 62.4613 17.0486 64.4754 19.7747C64.7649 20.166 65.2345 20.3814 65.72 20.3461L70.9214 19.9637L74.5922 28.3533L70.8369 31.9548C70.4934 32.2845 70.3376 32.7645 70.4234 33.2333C71.0364 36.5807 71.1251 40.0022 70.6859 43.3765C70.6243 43.8496 70.8044 44.3212 71.1659 44.6329L75.0604 47.9948L71.7678 56.5249Z" fill="black"/>
<path d="M39.1621 22.1736C34.1864 22.1736 30.1527 26.2066 30.1527 31.1823C30.1527 36.1586 34.1864 40.1917 39.1621 40.1917C44.1377 40.1917 48.1715 36.1579 48.1715 31.1823C48.1659 26.2094 44.1357 22.1791 39.1621 22.1736ZM39.1621 37.3548C35.7531 37.3548 32.9896 34.5913 32.9896 31.1823C32.9896 27.7733 35.7531 25.0098 39.1621 25.0098C42.5711 25.0098 45.3346 27.7733 45.3346 31.1823C45.3304 34.5899 42.5697 37.3506 39.1621 37.3548Z" fill="black"/>
</g>
<defs>
<clipPath id="clip0">
<rect width="78" height="78" fill="white"/>
</clipPath>
</defs>
</svg>
