<svg width="78" height="78" viewBox="0 0 78 78" fill="none" xmlns="http://www.w3.org/2000/svg">
<g clip-path="url(#clip0)">
<path d="M69.6552 4.96771C69.6615 4.1699 69.0199 3.51801 68.2221 3.51169C68.0141 3.51007 67.808 3.5534 67.6182 3.63864C58.5197 7.87323 47.8097 6.60358 39.9534 0.359309C39.4081 -0.11977 38.5918 -0.11977 38.0465 0.359309C30.1571 6.52376 19.4935 7.78782 10.3817 3.63864C9.65392 3.31143 8.79887 3.63629 8.47166 4.36385C8.38643 4.55364 8.34309 4.7595 8.34472 4.96771C8.34472 5.27108 8.44584 35.0595 8.34472 44.9264C8.28693 50.1993 20.5953 67.3183 38.2632 77.8064C38.7101 78.0644 39.2609 78.0644 39.7078 77.8064C57.4046 67.3183 69.7129 50.1993 69.6552 44.9264C69.554 35.0595 69.6552 5.27108 69.6552 4.96771ZM66.7659 44.9408C66.7659 48.1191 56.6534 64.0823 38.9999 74.8738C21.2887 64.0968 11.2051 48.1335 11.234 44.9553C11.3207 36.6197 11.2629 14.1845 11.234 7.10577C20.5532 10.5158 30.9573 9.0759 38.9999 3.26303C47.0426 9.0759 57.4467 10.5158 66.7659 7.10577C66.7659 14.1701 66.6937 36.6197 66.7659 44.9408Z" fill="black"/>
<path d="M17.5 43.5L17 14.5H20L27.5 15.5L33.5 14L39 12L42.5 13.5L49.5 16L56 15L60.5 14L61 20.5V43.5L58.5 49.5L46.5 61.5L39 67L30 60.5L22 52L17.5 43.5Z" fill="#FFC700"/>
<path d="M62.1143 13.751C62.1207 12.9532 61.4791 12.3013 60.6813 12.295C60.4732 12.2934 60.2672 12.3367 60.0774 12.422C53.4734 15.5267 45.6818 14.6317 39.9536 10.1105C39.4082 9.63145 38.592 9.63145 38.0467 10.1105C32.3172 14.5793 24.5785 15.4924 17.9662 12.4797C17.2385 12.1525 16.3834 12.4774 16.0562 13.2049C15.971 13.3947 15.9276 13.6008 15.9293 13.8088C15.9293 14.0255 16.0015 36.0851 15.9293 43.395C15.8859 47.3678 25.0738 60.225 38.2634 68.055C38.7103 68.313 39.2611 68.313 39.708 68.055C52.9264 60.225 62.1143 47.3678 62.1143 43.3372C62.0421 36.0273 62.1143 13.9822 62.1143 13.751ZM59.2251 43.3372C59.2251 45.3742 52.0019 57.1191 39.0001 65.0068C26.0995 57.0757 18.7752 45.3308 18.7752 43.3372C18.8763 37.4431 18.7752 21.6676 18.7752 15.8891C25.5845 18.2839 33.1338 17.2055 39.0001 12.9998C44.8664 17.2055 52.4158 18.2839 59.2251 15.8891V43.3372Z" fill="black"/>
</g>
<defs>
<clipPath id="clip0">
<rect width="78" height="78" fill="white"/>
</clipPath>
</defs>
</svg>
