<svg width="52" height="54" viewBox="0 0 52 54" fill="none" xmlns="http://www.w3.org/2000/svg">
<ellipse cx="26" cy="26.6579" rx="25" ry="25.6579" fill="#FFD300"/>
<path d="M26 52.3158C39.8071 52.3158 51 40.8284 51 26.6579C51 12.4874 39.8071 1 26 1C12.1929 1 1 12.4874 1 26.6579C1 40.8284 12.1929 52.3158 26 52.3158Z" stroke="#424548" stroke-width="1.8" stroke-linecap="round" stroke-linejoin="round"/>
<path d="M26 33.0724C29.4518 33.0724 32.25 30.2005 32.25 26.6579C32.25 23.1153 29.4518 20.2434 26 20.2434C22.5482 20.2434 19.75 23.1153 19.75 26.6579C19.75 30.2005 22.5482 33.0724 26 33.0724Z" stroke="#424548" stroke-width="1.8" stroke-linecap="round" stroke-linejoin="round"/>
<path d="M26 42.6941C34.6295 42.6941 41.625 35.5144 41.625 26.6579C41.625 17.8014 34.6295 10.6217 26 10.6217C17.3706 10.6217 10.375 17.8014 10.375 26.6579C10.375 35.5144 17.3706 42.6941 26 42.6941Z" stroke="#424548" stroke-width="1.8" stroke-linecap="round" stroke-linejoin="round"/>
</svg>
