<svg width="49" height="46" viewBox="0 0 49 46" fill="none" xmlns="http://www.w3.org/2000/svg">
<path d="M24.5001 2.26926L3 23.6282H8.79496V44.359H19.4744V29.2821H29.5257V44.359H40.2052V23.6282H45.8591L40.2052 17.9744V7.92311H34.5514V12.3205L24.5001 2.26926Z" fill="#FFD300"/>
<path d="M36.1053 15.6718L24.5 4.03971L6.22558 22.3564H10.3158V43.0357H18.0526V27.5262H30.9474V43.0357H38.6842V22.3564H42.7744L38.6842 18.2567V9.43183H36.1053V15.6718ZM0 24.9413L24.5 0.384644L33.5263 9.43183V6.84692H41.2632V17.1866L49 24.9413H41.2632V45.6154H28.3684V30.1059H20.6316V45.6154H7.73684V24.9413H0Z" fill="#424548"/>
</svg>
