<svg width="57" height="38" viewBox="0 0 57 38" fill="none" xmlns="http://www.w3.org/2000/svg">
<path d="M3.65029 34.608L1.2168 7.83951L3.04192 6.01439L50.4951 1.1474L52.3202 2.97252L54.7537 29.741L53.537 31.5661L4.86704 36.4331L3.65029 34.608Z" fill="#FFD300"/>
<path d="M50.0731 0.272137L2.73126 4.98921C2.00721 5.06218 1.34275 5.43041 0.883688 6.01311C0.424623 6.59582 0.208443 7.3454 0.282579 8.09739L2.91998 34.5671C2.99569 35.3189 3.35552 36.0111 3.92054 36.4918C4.48556 36.9725 5.20961 37.2023 5.93382 37.131L53.2757 32.4139C53.9997 32.341 54.6642 31.9727 55.1232 31.39C55.5823 30.8073 55.7985 30.0577 55.7243 29.3057L53.0869 2.83604C53.0112 2.0842 52.6514 1.39201 52.0864 0.911348C51.5214 0.430683 50.7973 0.200799 50.0731 0.272137ZM18.8334 33.9362L3.56777 22.6126L3.27648 19.6891L16.0076 5.57584L37.1735 3.4669L52.4392 14.7906L52.7305 17.7141L39.9993 31.8273L18.8334 33.9362ZM51.2661 3.01746L52.1888 12.2783L39.9387 3.19138L50.2615 2.16283C50.5029 2.13903 50.7443 2.21565 50.9326 2.37588C51.1209 2.5361 51.2409 2.76684 51.2661 3.01746ZM2.91965 6.87991L13.2424 5.85136L3.02616 17.1768L2.10342 7.91597C2.07869 7.6653 2.15074 7.41543 2.30376 7.22119C2.45679 7.02695 2.67829 6.90421 2.91965 6.87991ZM4.74082 34.3857L3.81809 25.1248L16.0682 34.2118L5.74544 35.2403C5.50403 35.2641 5.26267 35.1875 5.07432 35.0273C4.88598 34.867 4.76604 34.6363 4.74082 34.3857ZM53.0873 30.5232L42.7645 31.5518L52.9808 20.2263L53.9035 29.4872C53.9282 29.7378 53.8562 29.9877 53.7032 30.182C53.5501 30.3762 53.3286 30.4989 53.0873 30.5232ZM27.1557 10.1934C25.5351 10.3549 24.0007 11.0118 22.7464 12.0809C21.4921 13.15 20.5742 14.5835 20.109 16.1999C19.6437 17.8164 19.6519 19.5432 20.1325 21.1622C20.6131 22.7811 21.5445 24.2193 22.809 25.295C24.0735 26.3707 25.6142 27.0356 27.2364 27.2055C28.8585 27.3754 30.4892 27.0428 31.9223 26.2496C33.3553 25.4565 34.5264 24.2385 35.2873 22.7496C36.0483 21.2607 36.3649 19.5679 36.1972 17.8852C35.9701 15.6297 34.8906 13.5531 33.1955 12.1112C31.5005 10.6692 29.3284 9.9795 27.1557 10.1934ZM28.6628 25.319C27.4024 25.4446 26.1316 25.1792 25.0111 24.5565C23.8906 23.9338 22.9708 22.9817 22.368 21.8206C21.7651 20.6595 21.5063 19.3415 21.6243 18.0334C21.7423 16.7252 22.2318 15.4856 23.0309 14.4713C23.8299 13.4571 24.9027 12.7137 26.1135 12.3352C27.3243 11.9567 28.6187 11.96 29.8331 12.3449C31.0475 12.7297 32.1274 13.4787 32.9361 14.4971C33.7448 15.5156 34.246 16.7578 34.3764 18.0666C34.5494 19.8212 34.0449 21.5702 32.9738 22.9299C31.9026 24.2895 30.3523 25.1487 28.6628 25.319Z" fill="#424548"/>
</svg>
