<svg width="43" height="52" viewBox="0 0 43 52" fill="none" xmlns="http://www.w3.org/2000/svg">
<path d="M1.2168 48.0616V3.04187L3.65029 1.21674H40.1528L41.3695 3.65024V47.4532L39.5444 49.8867H3.04192L1.2168 48.0616Z" fill="#FFD300"/>
<mask id="path-2-inside-1" fill="white">
<path d="M33.1776 8.01422H9.40858C9.01458 8.01422 8.63673 8.17258 8.35813 8.45445C8.07953 8.73633 7.92302 9.11863 7.92302 9.51727V21.5416C7.92302 21.9402 8.07953 22.3225 8.35813 22.6044C8.63673 22.8863 9.01458 23.0446 9.40858 23.0446H33.1776C33.5716 23.0446 33.9495 22.8863 34.2281 22.6044C34.5067 22.3225 34.6632 21.9402 34.6632 21.5416V9.51727C34.6632 9.11863 34.5067 8.73633 34.2281 8.45445C33.9495 8.17258 33.5716 8.01422 33.1776 8.01422ZM31.6921 20.0386H10.8941V11.0203H31.6921V20.0386ZM39.1199 0H3.46632C2.54732 0.00106083 1.66625 0.370898 1.01642 1.02838C0.366586 1.68586 0.00104849 2.57728 0 3.5071V47.5963C0.00104849 48.5262 0.366586 49.4176 1.01642 50.0751C1.66625 50.7325 2.54732 51.1024 3.46632 51.1034H39.1199C40.0389 51.1024 40.92 50.7325 41.5698 50.0751C42.2196 49.4176 42.5852 48.5262 42.5862 47.5963V3.5071C42.5852 2.57728 42.2196 1.68586 41.5698 1.02838C40.92 0.370898 40.0389 0.00106083 39.1199 0ZM39.6151 47.5963C39.6149 47.7292 39.5627 47.8565 39.4699 47.9505C39.3771 48.0444 39.2512 48.0972 39.1199 48.0974H3.46632C3.33503 48.0972 3.20915 48.0444 3.11631 47.9505C3.02348 47.8565 2.97126 47.7292 2.97113 47.5963V3.5071C2.97126 3.37426 3.02348 3.24691 3.11631 3.15298C3.20915 3.05905 3.33503 3.00622 3.46632 3.00608H39.1199C39.2512 3.00622 39.3771 3.05905 39.4699 3.15298C39.5627 3.24691 39.6149 3.37426 39.6151 3.5071V47.5963ZM23.769 30.5599C23.769 31.0553 23.6238 31.5396 23.3518 31.9516C23.0797 32.3636 22.693 32.6846 22.2406 32.8742C21.7882 33.0639 21.2904 33.1135 20.8101 33.0168C20.3298 32.9201 19.8886 32.6816 19.5423 32.3312C19.1961 31.9809 18.9603 31.5345 18.8647 31.0486C18.7692 30.5626 18.8182 30.059 19.0056 29.6012C19.193 29.1435 19.5104 28.7522 19.9175 28.477C20.3247 28.2017 20.8034 28.0548 21.2931 28.0548C21.9495 28.0555 22.5789 28.3197 23.0431 28.7893C23.5072 29.2589 23.7683 29.8957 23.769 30.5599ZM23.769 40.5801C23.769 41.0756 23.6238 41.5599 23.3518 41.9719C23.0797 42.3838 22.693 42.7049 22.2406 42.8945C21.7882 43.0841 21.2904 43.1337 20.8101 43.0371C20.3298 42.9404 19.8886 42.7018 19.5423 42.3515C19.1961 42.0012 18.9603 41.5548 18.8647 41.0689C18.7692 40.5829 18.8182 40.0792 19.0056 39.6215C19.193 39.1638 19.5104 38.7725 19.9175 38.4973C20.3247 38.222 20.8034 38.0751 21.2931 38.0751C21.9495 38.0758 22.5789 38.34 23.0431 38.8096C23.5072 39.2792 23.7683 39.916 23.769 40.5801ZM13.8653 30.5599C13.8653 31.0553 13.7201 31.5396 13.448 31.9516C13.1759 32.3636 12.7893 32.6846 12.3368 32.8742C11.8844 33.0639 11.3866 33.1135 10.9063 33.0168C10.426 32.9201 9.98485 32.6816 9.63858 32.3312C9.29231 31.9809 9.0565 31.5345 8.96097 31.0486C8.86543 30.5626 8.91446 30.059 9.10186 29.6012C9.28926 29.1435 9.60661 28.7522 10.0138 28.477C10.4209 28.2017 10.8996 28.0548 11.3893 28.0548C12.0458 28.0555 12.6751 28.3197 13.1393 28.7893C13.6035 29.2589 13.8646 29.8957 13.8653 30.5599ZM13.8653 40.5801C13.8653 41.0756 13.7201 41.5599 13.448 41.9719C13.1759 42.3838 12.7893 42.7049 12.3368 42.8945C11.8844 43.0841 11.3866 43.1337 10.9063 43.0371C10.426 42.9404 9.98485 42.7018 9.63858 42.3515C9.29231 42.0012 9.0565 41.5548 8.96097 41.0689C8.86543 40.5829 8.91446 40.0792 9.10186 39.6215C9.28926 39.1638 9.60661 38.7725 10.0138 38.4973C10.4209 38.222 10.8996 38.0751 11.3893 38.0751C12.0458 38.0758 12.6751 38.34 13.1393 38.8096C13.6035 39.2792 13.8646 39.916 13.8653 40.5801ZM33.6728 30.5599C33.6728 31.0553 33.5276 31.5396 33.2555 31.9516C32.9835 32.3636 32.5968 32.6846 32.1444 32.8742C31.692 33.0639 31.1941 33.1135 30.7138 33.0168C30.2336 32.9201 29.7924 32.6816 29.4461 32.3312C29.0998 31.9809 28.864 31.5345 28.7685 31.0486C28.673 30.5626 28.722 30.059 28.9094 29.6012C29.0968 29.1435 29.4141 28.7522 29.8213 28.477C30.2285 28.2017 30.7072 28.0548 31.1969 28.0548C31.8533 28.0555 32.4827 28.3197 32.9468 28.7893C33.411 29.2589 33.6721 29.8957 33.6728 30.5599ZM33.6728 40.5801C33.6728 41.0756 33.5276 41.5599 33.2555 41.9719C32.9835 42.3838 32.5968 42.7049 32.1444 42.8945C31.692 43.0841 31.1941 43.1337 30.7138 43.0371C30.2336 42.9404 29.7924 42.7018 29.4461 42.3515C29.0998 42.0012 28.864 41.5548 28.7685 41.0689C28.673 40.5829 28.722 40.0792 28.9094 39.6215C29.0968 39.1638 29.4141 38.7725 29.8213 38.4973C30.2285 38.222 30.7072 38.0751 31.1969 38.0751C31.8533 38.0758 32.4827 38.34 32.9468 38.8096C33.411 39.2792 33.6721 39.916 33.6728 40.5801Z"/>
</mask>
<path d="M33.1776 8.01422H9.40858C9.01458 8.01422 8.63673 8.17258 8.35813 8.45445C8.07953 8.73633 7.92302 9.11863 7.92302 9.51727V21.5416C7.92302 21.9402 8.07953 22.3225 8.35813 22.6044C8.63673 22.8863 9.01458 23.0446 9.40858 23.0446H33.1776C33.5716 23.0446 33.9495 22.8863 34.2281 22.6044C34.5067 22.3225 34.6632 21.9402 34.6632 21.5416V9.51727C34.6632 9.11863 34.5067 8.73633 34.2281 8.45445C33.9495 8.17258 33.5716 8.01422 33.1776 8.01422ZM31.6921 20.0386H10.8941V11.0203H31.6921V20.0386ZM39.1199 0H3.46632C2.54732 0.00106083 1.66625 0.370898 1.01642 1.02838C0.366586 1.68586 0.00104849 2.57728 0 3.5071V47.5963C0.00104849 48.5262 0.366586 49.4176 1.01642 50.0751C1.66625 50.7325 2.54732 51.1024 3.46632 51.1034H39.1199C40.0389 51.1024 40.92 50.7325 41.5698 50.0751C42.2196 49.4176 42.5852 48.5262 42.5862 47.5963V3.5071C42.5852 2.57728 42.2196 1.68586 41.5698 1.02838C40.92 0.370898 40.0389 0.00106083 39.1199 0ZM39.6151 47.5963C39.6149 47.7292 39.5627 47.8565 39.4699 47.9505C39.3771 48.0444 39.2512 48.0972 39.1199 48.0974H3.46632C3.33503 48.0972 3.20915 48.0444 3.11631 47.9505C3.02348 47.8565 2.97126 47.7292 2.97113 47.5963V3.5071C2.97126 3.37426 3.02348 3.24691 3.11631 3.15298C3.20915 3.05905 3.33503 3.00622 3.46632 3.00608H39.1199C39.2512 3.00622 39.3771 3.05905 39.4699 3.15298C39.5627 3.24691 39.6149 3.37426 39.6151 3.5071V47.5963ZM23.769 30.5599C23.769 31.0553 23.6238 31.5396 23.3518 31.9516C23.0797 32.3636 22.693 32.6846 22.2406 32.8742C21.7882 33.0639 21.2904 33.1135 20.8101 33.0168C20.3298 32.9201 19.8886 32.6816 19.5423 32.3312C19.1961 31.9809 18.9603 31.5345 18.8647 31.0486C18.7692 30.5626 18.8182 30.059 19.0056 29.6012C19.193 29.1435 19.5104 28.7522 19.9175 28.477C20.3247 28.2017 20.8034 28.0548 21.2931 28.0548C21.9495 28.0555 22.5789 28.3197 23.0431 28.7893C23.5072 29.2589 23.7683 29.8957 23.769 30.5599ZM23.769 40.5801C23.769 41.0756 23.6238 41.5599 23.3518 41.9719C23.0797 42.3838 22.693 42.7049 22.2406 42.8945C21.7882 43.0841 21.2904 43.1337 20.8101 43.0371C20.3298 42.9404 19.8886 42.7018 19.5423 42.3515C19.1961 42.0012 18.9603 41.5548 18.8647 41.0689C18.7692 40.5829 18.8182 40.0792 19.0056 39.6215C19.193 39.1638 19.5104 38.7725 19.9175 38.4973C20.3247 38.222 20.8034 38.0751 21.2931 38.0751C21.9495 38.0758 22.5789 38.34 23.0431 38.8096C23.5072 39.2792 23.7683 39.916 23.769 40.5801ZM13.8653 30.5599C13.8653 31.0553 13.7201 31.5396 13.448 31.9516C13.1759 32.3636 12.7893 32.6846 12.3368 32.8742C11.8844 33.0639 11.3866 33.1135 10.9063 33.0168C10.426 32.9201 9.98485 32.6816 9.63858 32.3312C9.29231 31.9809 9.0565 31.5345 8.96097 31.0486C8.86543 30.5626 8.91446 30.059 9.10186 29.6012C9.28926 29.1435 9.60661 28.7522 10.0138 28.477C10.4209 28.2017 10.8996 28.0548 11.3893 28.0548C12.0458 28.0555 12.6751 28.3197 13.1393 28.7893C13.6035 29.2589 13.8646 29.8957 13.8653 30.5599ZM13.8653 40.5801C13.8653 41.0756 13.7201 41.5599 13.448 41.9719C13.1759 42.3838 12.7893 42.7049 12.3368 42.8945C11.8844 43.0841 11.3866 43.1337 10.9063 43.0371C10.426 42.9404 9.98485 42.7018 9.63858 42.3515C9.29231 42.0012 9.0565 41.5548 8.96097 41.0689C8.86543 40.5829 8.91446 40.0792 9.10186 39.6215C9.28926 39.1638 9.60661 38.7725 10.0138 38.4973C10.4209 38.222 10.8996 38.0751 11.3893 38.0751C12.0458 38.0758 12.6751 38.34 13.1393 38.8096C13.6035 39.2792 13.8646 39.916 13.8653 40.5801ZM33.6728 30.5599C33.6728 31.0553 33.5276 31.5396 33.2555 31.9516C32.9835 32.3636 32.5968 32.6846 32.1444 32.8742C31.692 33.0639 31.1941 33.1135 30.7138 33.0168C30.2336 32.9201 29.7924 32.6816 29.4461 32.3312C29.0998 31.9809 28.864 31.5345 28.7685 31.0486C28.673 30.5626 28.722 30.059 28.9094 29.6012C29.0968 29.1435 29.4141 28.7522 29.8213 28.477C30.2285 28.2017 30.7072 28.0548 31.1969 28.0548C31.8533 28.0555 32.4827 28.3197 32.9468 28.7893C33.411 29.2589 33.6721 29.8957 33.6728 30.5599ZM33.6728 40.5801C33.6728 41.0756 33.5276 41.5599 33.2555 41.9719C32.9835 42.3838 32.5968 42.7049 32.1444 42.8945C31.692 43.0841 31.1941 43.1337 30.7138 43.0371C30.2336 42.9404 29.7924 42.7018 29.4461 42.3515C29.0998 42.0012 28.864 41.5548 28.7685 41.0689C28.673 40.5829 28.722 40.0792 28.9094 39.6215C29.0968 39.1638 29.4141 38.7725 29.8213 38.4973C30.2285 38.222 30.7072 38.0751 31.1969 38.0751C31.8533 38.0758 32.4827 38.34 32.9468 38.8096C33.411 39.2792 33.6721 39.916 33.6728 40.5801Z" fill="#424548" stroke="#FFD300" mask="url(#path-2-inside-1)"/>
</svg>
