<svg width="44" height="44" viewBox="0 0 44 44" fill="none" xmlns="http://www.w3.org/2000/svg">
<circle cx="21.9015" cy="21.9015" r="21.0015" fill="#FFD300" stroke="#424548" stroke-width="1.8"/>
<path d="M26.0299 33.986L26.0313 33.9867C26.8607 34.4335 27.8107 34.6555 28.8785 34.6555C29.946 34.6555 30.8813 34.4337 31.6812 33.9864C32.0997 33.7608 32.4187 33.476 32.6326 33.1302C32.8469 32.784 32.9524 32.3821 32.9524 31.9282V22.5596C32.9524 22.0947 32.8471 21.6869 32.6326 21.3402C32.4185 20.9941 32.0992 20.715 31.6803 20.5009C30.8806 20.0539 29.9456 19.8322 28.8785 19.8322C27.8108 19.8322 26.8609 20.0542 26.0316 20.5009C25.6268 20.7155 25.3187 20.9952 25.1123 21.3417C24.9059 21.6881 24.8047 22.0954 24.8047 22.5596V31.9282C24.8047 32.3814 24.9061 32.7828 25.1123 33.1288C25.3184 33.4747 25.6259 33.7599 26.0299 33.986ZM30.6921 21.611L30.6921 21.6111L30.6949 21.6128C30.9076 21.7407 31.1194 21.8695 31.2791 22.0208C31.4371 22.1707 31.5331 22.3323 31.5331 22.525V31.9627C31.5331 32.1576 31.435 32.3387 31.2752 32.5076C31.1156 32.6763 30.9032 32.8234 30.6952 32.9486C30.515 33.0545 30.2355 33.1383 29.9083 33.1952C29.583 33.2517 29.2197 33.2801 28.8785 33.2801C28.5374 33.2801 28.1677 33.2517 27.8322 33.1951C27.4958 33.1383 27.2019 33.0545 27.0056 32.9476C26.7996 32.8236 26.5994 32.6774 26.4515 32.5101C26.3036 32.3427 26.2135 32.1608 26.2135 31.9627V22.525C26.2135 22.3289 26.3018 22.1666 26.4478 22.0185C26.5958 21.8683 26.7963 21.7398 27.0074 21.6128C27.4094 21.371 28.199 21.1731 28.8785 21.1731C29.2158 21.1731 29.5768 21.222 29.9014 21.3021C30.2274 21.3825 30.5094 21.4927 30.6921 21.611ZM12.0762 24.3062L12.0776 24.307C12.907 24.7538 13.8569 24.9758 14.9248 24.9758C15.9923 24.9758 16.9276 24.754 17.7276 24.3066C18.146 24.0811 18.4649 23.7963 18.6789 23.4505C18.8932 23.1043 18.9987 22.7024 18.9987 22.2485V12.8799C18.9987 12.426 18.8932 12.0241 18.6789 11.6778C18.4649 11.332 18.146 11.0473 17.7276 10.8217C16.9276 10.3744 15.9923 10.1525 14.9248 10.1525C13.8569 10.1525 12.907 10.3745 12.0776 10.8213L12.0776 10.8213L12.0762 10.8221C11.6722 11.0481 11.3647 11.3333 11.1585 11.6792C10.9524 12.0253 10.8509 12.4266 10.8509 12.8799V22.2485C10.8509 22.7017 10.9524 23.1031 11.1585 23.4491C11.3647 23.795 11.6722 24.0802 12.0762 24.3062ZM16.7931 11.9238L16.7931 11.9239L16.7959 11.9256C17.0066 12.0523 17.2071 12.1827 17.3551 12.3346C17.5014 12.4847 17.5898 12.649 17.5898 12.8453V22.3176C17.5898 22.4947 17.4822 22.6658 17.304 22.8322C17.1274 22.9971 16.8979 23.1422 16.6871 23.269L16.687 23.269L16.6843 23.2708C16.5038 23.3877 16.2374 23.4796 15.9251 23.5418C15.6143 23.6038 15.2653 23.635 14.9248 23.635C14.2398 23.635 13.5784 23.5089 13.1797 23.269C12.9701 23.1429 12.7502 22.9981 12.5834 22.834C12.4156 22.669 12.3145 22.4974 12.3145 22.3176V12.8453C12.3145 12.649 12.403 12.4847 12.5492 12.3346C12.6972 12.1827 12.8978 12.0523 13.1084 11.9256C13.5108 11.6836 14.2459 11.4934 14.9248 11.4934C15.2625 11.4934 15.6378 11.5405 15.9765 11.619C16.3171 11.6979 16.6116 11.8063 16.7931 11.9238ZM15.557 35.1049H15.6156L15.6442 35.0539L29.8237 9.78292L29.9073 9.63399H29.7365H28.2463H28.1878L28.1591 9.68505L13.9796 34.956L13.896 35.1049H14.0668H15.557Z" fill="#424548" stroke="#424548" stroke-width="0.2"/>
</svg>
